<svg xmlns="http://www.w3.org/2000/svg" viewBox="0 0 124.88 143.39"><defs><style>.cls-1{fill:#231f20;}.cls-2{fill:#fff;stroke:#231f20;stroke-width:1.79px;}</style></defs><title>Asset 13</title><g id="Layer_2" data-name="Layer 2"><g id="Layer_1-2" data-name="Layer 1"><path class="cls-1" d="M17,88.62l-12.14.25V67l-4.82.17-.06-9,14.78-2Z"/><path class="cls-1" d="M39.66,89A13.85,13.85,0,0,1,34,87.26a15.32,15.32,0,0,1-4.46-3.86,16.84,16.84,0,0,1-3.67-11.8,16.16,16.16,0,0,1,4.88-11.16,14.25,14.25,0,0,1,4.83-3.1,12.86,12.86,0,0,1,5.76-.83A13.38,13.38,0,0,1,47,58.22a15.06,15.06,0,0,1,4.46,3.83,16.9,16.9,0,0,1,3.67,11.83A16.18,16.18,0,0,1,50.25,85a14.78,14.78,0,0,1-4.83,3.12A13.28,13.28,0,0,1,39.66,89Zm.75-21.73a4.92,4.92,0,0,0-3.82,1.32,5.22,5.22,0,0,0-1.74,3.71,5.49,5.49,0,0,0,1.34,3.95,5.3,5.3,0,0,0,3.65,1.87,5,5,0,0,0,3.8-1.3,5.28,5.28,0,0,0,1.76-3.73,5.46,5.46,0,0,0-1.35-4A5.15,5.15,0,0,0,40.41,67.23Z"/><path class="cls-1" d="M64.47,86a4.87,4.87,0,0,1,2-3A4.52,4.52,0,0,1,70,82.28a4.08,4.08,0,0,1,2.83,1.91,4.35,4.35,0,0,1,.55,3.44,4.85,4.85,0,0,1-2.06,3,4.52,4.52,0,0,1-3.45.77A4,4,0,0,1,65,89.46,4.29,4.29,0,0,1,64.47,86Z"/><path class="cls-1" d="M99.33,88.62l-12.13.25V67l-4.83.17-.05-9,14.77-2Z"/><path class="cls-1" d="M124.88,88.62l-12.14.25V67l-4.83.17,0-9,14.78-2Z"/><path class="cls-1" d="M19.81,31.16l-3.95,4.23.95,3L11.6,39.5,6.86,20.93l18.37,5.79-2.75,5.62Zm-3.7-1.65-2.5-1.12.92,2.87Z"/><path class="cls-1" d="M27.07,9.2c.07.65.18,1.38.34,2.18s.41,1.79.66,2.59q1,3.13,2.33,4.1a3.56,3.56,0,0,0,.64.38,2.73,2.73,0,0,0,1.36.11A2.56,2.56,0,0,0,33.63,18a2.1,2.1,0,0,0,.52-.62,2.4,2.4,0,0,0,.26-1.06,6.75,6.75,0,0,0-1.53-3.82A18.39,18.39,0,0,0,31,10.23c-.3-.31-.66-.67-1.07-1.06l-.54-.51-.54-.52L34,5Q41.09,12.26,40.33,18a7.41,7.41,0,0,1-2.45,4.66,9,9,0,0,1-1.55,1.09c-.2.11-.41.2-.61.29a1.45,1.45,0,0,0-.22.09.71.71,0,0,1-.16.07,8.69,8.69,0,0,1-4.73.48,8.23,8.23,0,0,1-3.23-1.42,13.78,13.78,0,0,1-4.46-6.4,29.14,29.14,0,0,1-1.07-3.55c-.22-.95-.41-1.9-.55-2.86ZM38.21,22.6l0,0h0Zm.46-1.32s.06,0,.06,0Zm0,0s.06,0,.06,0S38.71,21.26,38.67,21.28Z"/><path class="cls-1" d="M63,14.48a9.94,9.94,0,0,1-5.52,3.58,10.25,10.25,0,0,1-3.93.3A10,10,0,0,1,50,17.27,9.36,9.36,0,0,1,47.18,15a8.71,8.71,0,0,1-1.7-3.26,8.44,8.44,0,0,1-.19-3.64,9.09,9.09,0,0,1,1.29-3.36A9.89,9.89,0,0,1,52.67.37a10.67,10.67,0,0,1,4-.3A10.08,10.08,0,0,1,60.25,1.2L58.73,5.29a4.8,4.8,0,0,0-3-.16A4.51,4.51,0,0,0,53,7a3.49,3.49,0,0,0,1.44,5.21,4.61,4.61,0,0,0,3.28.3h0l.05-2-2.69.25,0-3.83,6.79-.69Z"/><path class="cls-1" d="M77.44,2.8q-.54.83-1.11,1.92a23.4,23.4,0,0,0-1.1,2.44c-.81,2-1.06,3.6-.76,4.65a3,3,0,0,0,.26.69,2.73,2.73,0,0,0,1,.95,2.63,2.63,0,0,0,1.29.36,2.14,2.14,0,0,0,.79-.16,2.49,2.49,0,0,0,.87-.67A6.71,6.71,0,0,0,79.87,9a17.13,17.13,0,0,0-.06-3c0-.43-.09-.93-.17-1.5l-.1-.73-.09-.74,6,.84Q86.45,14,82.27,18a7.32,7.32,0,0,1-4.83,2.09,8.58,8.58,0,0,1-1.89-.12,6.38,6.38,0,0,1-.66-.15l-.24-.07-.16-.05a8.57,8.57,0,0,1-4-2.59,8.08,8.08,0,0,1-1.63-3.13,13.72,13.72,0,0,1,.54-7.79A30.48,30.48,0,0,1,70.8,2.71c.43-.88.88-1.74,1.37-2.57Zm.27,17.44h0Zm1.19-.73a.15.15,0,0,1,.07,0Zm0,0a.15.15,0,0,1,.07,0A.15.15,0,0,0,78.9,19.51Z"/><path class="cls-1" d="M104.36,13.25l-3.14,2.62c-.93-1.12-1.74-1.53-2.41-1.24q-1.31.57-.21,3.06a19.87,19.87,0,0,0,1.09,2.13l.14.25.13.21.25.43c.16.3.28.52.34.66a4.47,4.47,0,0,1,.24,3.16A4.56,4.56,0,0,1,99,27a6,6,0,0,1-2.9,1.12,6.82,6.82,0,0,1-3.56-.77,9.11,9.11,0,0,1-2.24-1.68,19.25,19.25,0,0,1-2-2.21l3.83-2.16a3.15,3.15,0,0,0,1.35,1.56c.51.25.89.08,1.11-.52a2.1,2.1,0,0,0,0-1.27,6.9,6.9,0,0,0-.77-1.6l-.28-.43-.27-.45q-.33-.54-.54-.93a5.7,5.7,0,0,1-.67-4.51,5,5,0,0,1,2.19-2.81,5.5,5.5,0,0,1,3.45-.76,9.48,9.48,0,0,1,4.63,1.78A10.3,10.3,0,0,1,104.36,13.25Z"/><path class="cls-1" d="M111,18.07l10.54,9.77-3.29,3.47L114.63,28,106,37l-4.2-4,8.77-8.65-2.93-2.66Z"/><path class="cls-2" d="M21.93,131.34l-7.34-3L11.3,131l-4-6.08,21.4-15.11,1.57,26.28-8.52-.77Zm.3-5.53.21-3.74-3.21,2.58Z"/><path class="cls-2" d="M48.61,141.94A12.34,12.34,0,0,1,44,140.05a11.23,11.23,0,0,1-3.21-3.27,10.91,10.91,0,0,1-1.62-4.25,11,11,0,0,1,.32-4.74,11.74,11.74,0,0,1,2.28-4.35,13.31,13.31,0,0,1,3.71-3.2,13.47,13.47,0,0,1,9.74-1.69,12.41,12.41,0,0,1,4.57,1.89,11.14,11.14,0,0,1,3.22,3.27,10.57,10.57,0,0,1,1.6,4.25,10.92,10.92,0,0,1-.31,4.74,11.94,11.94,0,0,1-2.27,4.35,13.64,13.64,0,0,1-3.72,3.2A13.47,13.47,0,0,1,48.61,141.94Zm-1.5-12.56a4.27,4.27,0,0,0,.5,3.57A4.69,4.69,0,0,0,50.72,135a5.36,5.36,0,0,0,3.88-.67,5,5,0,0,0,2.38-3,4.17,4.17,0,0,0-.53-3.57,4.52,4.52,0,0,0-3.09-2.05,5.42,5.42,0,0,0-3.88.67A5,5,0,0,0,47.11,129.38Z"/><path class="cls-2" d="M79.42,119.57a28.41,28.41,0,0,0-.47,3,33.58,33.58,0,0,0-.23,3.65q0,4.48,1.31,6.29a4,4,0,0,0,.67.76,3.65,3.65,0,0,0,1.72.72,3.59,3.59,0,0,0,1.83-.18,2.7,2.7,0,0,0,.92-.58,3.29,3.29,0,0,0,.78-1.28c.49-1.35.36-3.21-.39-5.6A22.55,22.55,0,0,0,84,122.54c-.26-.53-.57-1.14-1-1.83l-.48-.88-.48-.91,8.07-1.86q6.16,12.35,2.79,19.46a10,10,0,0,1-5.14,5,11.53,11.53,0,0,1-2.46.77c-.31.06-.61.1-.92.13a1.66,1.66,0,0,0-.32,0,1,1,0,0,1-.24,0,11.81,11.81,0,0,1-6.34-1.35,11.16,11.16,0,0,1-3.6-3.19c-1.83-2.52-2.88-5.91-3.12-10.2a43.29,43.29,0,0,1,.09-5c.11-1.32.27-2.64.49-3.94Zm8.86,22.08,0,0h0Zm1.15-1.52.1,0Zm0,0,.1,0Z"/><path class="cls-2" d="M94.77,116.37l16.92-10,3.24,5.68-5.72,3.46,8.27,14.82-6.86,3.92-7.86-14.87-4.63,2.8Z"/></g></g></svg>