<svg xmlns="http://www.w3.org/2000/svg" viewBox="0 0 137.04 143.89"><defs><style>.cls-1{fill:#231f20;}.cls-2{fill:#fff;}</style></defs><title>Asset 2</title><g id="Layer_2" data-name="Layer 2"><g id="Layer_1-2" data-name="Layer 1"><path class="cls-1" d="M17.65,82.93l-12.58.26V60.51l-5,.17L0,51.39l15.33-2.08Z"/><path class="cls-1" d="M51,67.18a12.41,12.41,0,0,1,1.58,6.09A10.9,10.9,0,0,1,50.82,79a11.07,11.07,0,0,1-5.07,4.32,15.36,15.36,0,0,1-7.37,1.11,22.08,22.08,0,0,1-5.46-1.18,14.47,14.47,0,0,1-5-2.69l5.6-6.7a10.19,10.19,0,0,0,3,1.22,8.28,8.28,0,0,0,4.14,0c1.16-.31,1.84-.84,2-1.58.47-2-.25-3.34-2.18-3.89a8.18,8.18,0,0,0-2.17-.3h-.8c-.23,0-.4,0-.53,0l-.65-6.73.27-.07.06,0,.55-.06.55-.06c.46-.05.84-.11,1.14-.17a3.85,3.85,0,0,0,1.95-.87,2.54,2.54,0,0,0,.66-1.58,2,2,0,0,0-.47-1.62,2.25,2.25,0,0,0-2.33-.46,7.1,7.1,0,0,0-1.31.46,8.42,8.42,0,0,0-1.07.59q-.29.2-3.31,2.7l-6.82-5.18a13.9,13.9,0,0,1,3.45-3.88,18.54,18.54,0,0,1,5.84-3.15,15.22,15.22,0,0,1,6.52-.85,11.84,11.84,0,0,1,4.4,1.37,18.29,18.29,0,0,1,2.93,1.89,6,6,0,0,1,2.06,2.85,6.61,6.61,0,0,1-.12,5.05,12,12,0,0,1-3.16,4A12.9,12.9,0,0,1,51,67.18Z"/><path class="cls-1" d="M62.56,80.24a5,5,0,0,1,2.13-3.08,4.64,4.64,0,0,1,3.58-.8,4.14,4.14,0,0,1,2.93,2,4.43,4.43,0,0,1,.57,3.56A5,5,0,0,1,69.64,85a4.67,4.67,0,0,1-3.58.8,4.19,4.19,0,0,1-2.93-2A4.43,4.43,0,0,1,62.56,80.24Z"/><path class="cls-1" d="M98.73,82.93l-12.59.26V60.51l-5,.17-.06-9.29,15.33-2.08Z"/><path class="cls-1" d="M136.37,76.89l-1.5-.08-.06,6.76-10.63-.44V76.24l-16.6-.91.67-24.72h10.62l-.67,16,6,0V51.28L135,51.5l-.1,15,2.1,0Z"/><path class="cls-1" d="M39.1,19.16a8.78,8.78,0,0,1,.3,5.43,9.8,9.8,0,0,1-2.24,3.95A13.62,13.62,0,0,1,33,31.78l-3.43-4.71q2.84-2.14,3-4.76a3.91,3.91,0,0,0-.44-2.16l-4.36-9L33.92,7.8Z"/><path class="cls-1" d="M51.33,3.28c-.12.77-.22,1.64-.29,2.61a28.34,28.34,0,0,0,0,3.17c.09,2.59.55,4.4,1.37,5.41a3.35,3.35,0,0,0,.61.63,3.13,3.13,0,0,0,1.52.56,3.05,3.05,0,0,0,1.58-.22,2.6,2.6,0,0,0,.78-.54,3,3,0,0,0,.63-1.14,8,8,0,0,0-.55-4.84,20.43,20.43,0,0,0-1.49-3.23c-.24-.46-.54-1-.89-1.56l-.45-.74-.46-.77L60.57.69q5.83,10.49,3.17,16.78A8.67,8.67,0,0,1,59.48,22a11.78,11.78,0,0,1-2.11.76c-.27.06-.53.1-.79.14a1.45,1.45,0,0,0-.29,0l-.2,0a10.26,10.26,0,0,1-5.55-.93,9.86,9.86,0,0,1-3.25-2.63A16.38,16.38,0,0,1,44.2,10.7a36.71,36.71,0,0,1-.12-4.39c.05-1.15.13-2.29.28-3.44ZM59.87,22.1l0,0h0Zm.94-1.36.08,0Zm0,0,.08,0Z"/><path class="cls-1" d="M80.13.69,77.82,14.54l7.3.43-.59,6.34L70.72,20l1.7-20Z"/><path class="cls-1" d="M109.17,8.67,112.71,15l-10,4.91-2.84,7.71-7.22-2.53,2.81-8L91.24,7.53l7-3.15,3.12,9.33Z"/><path class="cls-2" d="M15.85,117.35a8.71,8.71,0,0,1-5,2.17,10.21,10.21,0,0,1-4.49-.73A13.7,13.7,0,0,1,1.9,116l3.22-4.85c2,1.26,3.84,1.63,5.5,1.11a3.8,3.8,0,0,0,1.87-1.16l6.91-7.2,5.3,4.66Z"/><path class="cls-1" d="M10.16,120.32a11.08,11.08,0,0,1-4.06-.81,14.44,14.44,0,0,1-4.74-3l-.47-.45,4-6,.64.4c1.82,1.14,3.41,1.48,4.86,1a3.18,3.18,0,0,0,1.51-.91l7.45-7.79,6.49,5.7-9.49,9.43a9.45,9.45,0,0,1-5.41,2.35Q10.55,120.32,10.16,120.32Zm-7.24-4.46a13,13,0,0,0,3.75,2.2,9.05,9.05,0,0,0,4.14.68,7.79,7.79,0,0,0,4.51-2l8.24-8.2L19.44,105l-6.38,6.67A4.71,4.71,0,0,1,10.85,113a7,7,0,0,1-5.49-.82Z"/><path class="cls-2" d="M43.23,117.67c-.11,1.15-.29,2.29-.5,3.42a34.12,34.12,0,0,1-1.11,4.25,16.37,16.37,0,0,1-5,7.81A9.53,9.53,0,0,1,32.89,135a10.26,10.26,0,0,1-5.64-.34.89.89,0,0,1-.19-.07l-.27-.1c-.24-.1-.49-.2-.73-.32A11.83,11.83,0,0,1,24.18,133,8.66,8.66,0,0,1,21,127.54q-1.17-6.72,6.88-15.65l6.32,3.45-.62.64-.61.62c-.47.49-.87.92-1.22,1.32a21.41,21.41,0,0,0-2.17,2.81A8,8,0,0,0,28,125.34a2.69,2.69,0,0,0,.37,1.25,2.44,2.44,0,0,0,.62.7,3.26,3.26,0,0,0,1.49.58,3.53,3.53,0,0,0,1.62-.21,3.14,3.14,0,0,0,.73-.48c1-.8,1.88-2.45,2.57-5,.25-1,.48-2,.65-3.11a25.55,25.55,0,0,0,.3-2.61ZM29.84,135.88h.08Zm1.55-.58.08,0Zm0,0,.08,0Z"/><path class="cls-1" d="M29.75,136.65l0-.22-.08.22.09-.45-.2.4.24-.63a12,12,0,0,1-2.81-.58l-.26-.1s0,0-.1,0l-.09,0a6.77,6.77,0,0,1-.85-.37,12.39,12.39,0,0,1-2-1.29,9.47,9.47,0,0,1-3.42-5.88c-.83-4.71,1.55-10.2,7.06-16.31l.41-.45,7.76,4.22-2,2c-.46.47-.85.9-1.19,1.28a22.37,22.37,0,0,0-2.1,2.71,7.37,7.37,0,0,0-1.5,4.15,1.75,1.75,0,0,0,.69,1.39,2.3,2.3,0,0,0,1.11.41,2,2,0,0,0,1.77-.52c.89-.7,1.66-2.24,2.3-4.56.26-1,.47-2,.63-3s.24-1.72.3-2.54l.06-.86L44.07,117l-.07.72c-.1,1.06-.27,2.2-.51,3.48a34.62,34.62,0,0,1-1.13,4.36,17.27,17.27,0,0,1-5.23,8.17,10.31,10.31,0,0,1-4.07,2,10.48,10.48,0,0,1-1.77.25l0,.07V136l0,.06V136h-.11v0a10,10,0,0,1-1.22,0l-.14.37Zm-1.67-23.78c-4.89,5.55-7,10.44-6.28,14.54a7.8,7.8,0,0,0,2.87,4.93,10.18,10.18,0,0,0,1.74,1.13c.22.11.45.2.67.29l.13,0,.29.11a9.56,9.56,0,0,0,5.21.33,8.71,8.71,0,0,0,3.45-1.7,15.61,15.61,0,0,0,4.72-7.45A31.77,31.77,0,0,0,42,120.94c.18-1,.32-1.81.42-2.63L37,117.4c-.06.6-.14,1.21-.25,1.83a29.44,29.44,0,0,1-.66,3.18c-.74,2.7-1.66,4.46-2.84,5.38a3.63,3.63,0,0,1-.93.59,4.26,4.26,0,0,1-2,.26,4,4,0,0,1-1.87-.72,3.32,3.32,0,0,1-1.3-2.52A8.55,8.55,0,0,1,29,120.31a23.57,23.57,0,0,1,2.25-2.91c.36-.4.76-.85,1.24-1.34l.52-.53Z"/><path class="cls-2" d="M55.37,121.79l-4.24,19.6L44,139.63,49,120.31Z"/><path class="cls-1" d="M51.72,142.34l-8.64-2.15,5.31-20.81,7.9,1.83ZM45,139.06l5.56,1.38,3.91-18.06-4.93-1.14Z"/><path class="cls-2" d="M67.89,122.66l-1,13.65,6.61.43-.32,6.36-13.9-.35,1.15-20.44Z"/><path class="cls-1" d="M73.87,143.89l-15.45-.38,1.24-22,9.06.43-1,13.65,6.59.43ZM60.06,142l12.34.31.25-4.84L66,137l1-13.63-5.93-.28Z"/><path class="cls-2" d="M86.61,121.77l1.2,13.63,6.59-.65.71,6.33L81.35,143l-2.2-20.36Z"/><path class="cls-1" d="M80.66,143.88,78.3,122l9-1.06,1.2,13.65,6.58-.65.88,7.84ZM80,123.32l2,18.8,12.23-1.71-.55-4.82-6.61.66-1.2-13.62Z"/><path class="cls-2" d="M111.5,119.08l-6.64,2.34.78,2.38,3.9-1.72,1.56,5.07-3.88,1.39.71,2.25,7.44-2.81,1.67,5.33-13.5,4.62-6.79-19,12.77-5.26Z"/><path class="cls-1" d="M103.07,138.91l-7.3-20.38L110,112.69l2.55,6.86-6.68,2.35.28.85L110,121l2,6.62L108.19,129l.23.75,7.45-2.81L118,133.8Zm-5.34-19.5L104,136.94l12.06-4.12L114.88,129l-7.45,2.8-1.17-3.74,3.88-1.39-1.09-3.53-3.88,1.72-1.29-3.92,6.62-2.33-1.43-3.87Z"/><path class="cls-2" d="M127.79,105.09l-3.25,3.4,10.68,9.92-4.62,5.06L120,113.19l-4,4.19-4.18-3.82,11.64-12.43Z"/><path class="cls-1" d="M130.63,124.58,120,114.29l-4,4.18-5.32-4.87L123.41,100l5.49,5-3.26,3.39,10.68,9.92ZM120,112.08l10.56,10.27,3.57-3.89-10.7-9.94,3.24-3.39-3.17-2.91-10.58,11.3,3,2.78Z"/></g></g></svg>