<svg xmlns="http://www.w3.org/2000/svg" viewBox="0 0 82.42 41.46"><title>Asset 5</title><g id="Layer_2" data-name="Layer 2"><g id="Layer_1-2" data-name="Layer 1"><path d="M3.7,17.78H0V4.09H3.51V5.7a4.67,4.67,0,0,1,4.15-2,4.12,4.12,0,0,1,3.93,2.23c.19-.24.36-.48.55-.7A4.41,4.41,0,0,1,15,3.76a5.52,5.52,0,0,1,3.53.54A4.54,4.54,0,0,1,20.8,7.76a9.08,9.08,0,0,1,.08,1.17v8.84H17.29c0-.09,0-.17,0-.25V9.69A3.32,3.32,0,0,0,17,8.23a2,2,0,0,0-1.32-1.08,2.54,2.54,0,0,0-3.32,2.39c0,.33,0,.67,0,1v7.21H8.66V9.65A2.74,2.74,0,0,0,8.07,7.8a2.13,2.13,0,0,0-.65-.51A2.56,2.56,0,0,0,3.7,9.48v8.3Z"/><path d="M42.07,20.88h3.64v7.84s0,0,.06,0A4.79,4.79,0,0,1,49.18,27a6.15,6.15,0,0,1,4.41,1.15,6.24,6.24,0,0,1,2.32,3.74,9,9,0,0,1-.44,5.71,6.14,6.14,0,0,1-6.3,3.75A4.66,4.66,0,0,1,46,39.84l-.33-.42V41H42.07ZM52.46,34.17h.06a14.28,14.28,0,0,0-.3-1.61,3.32,3.32,0,0,0-6-.7,4.42,4.42,0,0,0-.13,4.37A3.06,3.06,0,0,0,49,38,3.15,3.15,0,0,0,52,36.39,4.27,4.27,0,0,0,52.46,34.17Z"/><path d="M82.35,35.17H72.58a3.16,3.16,0,0,0,.89,2,3.72,3.72,0,0,0,4.42.6,3.19,3.19,0,0,0,1.16-1.43c0-.11.08-.21.24-.16l2.85.86s0,0,.11.07c-.18.39-.32.8-.53,1.17a6,6,0,0,1-5,3.09,7.26,7.26,0,0,1-4.17-.76,6.44,6.44,0,0,1-3.29-3.95,8,8,0,0,1,.29-5.82,6.65,6.65,0,0,1,6.44-4A6.57,6.57,0,0,1,80,28.2a6.18,6.18,0,0,1,2.29,3.91,10.72,10.72,0,0,1,.14,2.77C82.38,35,82.36,35.05,82.35,35.17Zm-3.58-2.56a2.81,2.81,0,0,0-.69-1.75,3.31,3.31,0,0,0-4.53-.09,2.83,2.83,0,0,0-.89,1.84Z"/><path d="M62.4,11.9H52.57a9,9,0,0,0,.28,1A3.47,3.47,0,0,0,56.24,15a3,3,0,0,0,2.27-1,12.14,12.14,0,0,0,.73-1.09l3,.91c-.15.36-.27.72-.44,1.05A5.9,5.9,0,0,1,57.65,18a7.34,7.34,0,0,1-4.86-.56,6.61,6.61,0,0,1-3.66-4.89A8.09,8.09,0,0,1,49.48,8a6.7,6.7,0,0,1,6.8-4.32,6.44,6.44,0,0,1,4.18,1.66,6.31,6.31,0,0,1,1.83,3.49A10.57,10.57,0,0,1,62.4,11.9ZM52.7,9.34h6.11A2.79,2.79,0,0,0,58,7.48a3.37,3.37,0,0,0-4.17-.17A2.84,2.84,0,0,0,52.7,9.34Z"/><path d="M36.06,17.78H32.8s-.15-.12-.15-.18c-.06-.46-.1-.91-.14-1.34-.31.3-.61.64-1,.93a4.83,4.83,0,0,1-4,.9,4.42,4.42,0,0,1-3.11-1.86,4,4,0,0,1,1.68-5.84,10,10,0,0,1,2.52-.62c.86-.12,1.72-.24,2.57-.38a1.08,1.08,0,0,0,.81-1.8A1.84,1.84,0,0,0,31,6.77a3.68,3.68,0,0,0-1.65-.07,2.36,2.36,0,0,0-1.94,2l0,.18-3.27-.69a4.65,4.65,0,0,1,.1-.58,4.86,4.86,0,0,1,3.06-3.42,7.36,7.36,0,0,1,6.14.22,4.42,4.42,0,0,1,2.51,4.2c0,2.29,0,4.58,0,6.88,0,.64.07,1.29.12,1.93C36,17.53,36.05,17.64,36.06,17.78Zm-3.73-6.16c-.66.1-1.24.18-1.81.28a16.88,16.88,0,0,0-1.86.34,1.6,1.6,0,0,0,.13,3.11,3.5,3.5,0,0,0,1,0,2.51,2.51,0,0,0,2.38-2A13.55,13.55,0,0,0,32.33,11.62Z"/><path d="M40.51,7.37H38.06V4.08h2.56V0h3.56V4.07h2.75V7.36H44.19v5.7a3,3,0,0,0,0,.52,1.14,1.14,0,0,0,1.13,1.06,4,4,0,0,0,.78,0c.26,0,.52,0,.79-.07a1.23,1.23,0,0,1,0,.19v2.63c0,.13,0,.23-.16.28a5.7,5.7,0,0,1-4.24-.23,3.69,3.69,0,0,1-2-3.5c0-1.81,0-3.62,0-5.43Z"/><path d="M30.45,41H26.78V20.89h3.67Z"/><path d="M62.78,41H59.1V27.34h3.57v1.95c1.11-1.9,2.83-2.16,4.75-2V31c-.44,0-.86-.07-1.28-.06A3.14,3.14,0,0,0,62.83,34c0,.31,0,.62,0,.94V41Z"/><path d="M38.1,41H34.43V27.34H38.1Z"/><path d="M34,22.8a2.28,2.28,0,1,1,2.24,2.31A2.26,2.26,0,0,1,34,22.8Z"/></g></g></svg>