<svg xmlns="http://www.w3.org/2000/svg" viewBox="0 0 85.86 85.86"><defs><style>.cls-1{fill:#df4828;}</style></defs><title>Asset 9</title><g id="Layer_2" data-name="Layer 2"><g id="Layer_1-2" data-name="Layer 1"><path d="M42.11,85.85a42.93,42.93,0,1,1,43.74-42.1A43,43,0,0,1,42.11,85.85ZM43.71,2A41,41,0,1,0,83.88,43.71,41,41,0,0,0,43.71,2Z"/><path class="cls-1" d="M63,46.58a2.1,2.1,0,1,0,2,2.14A2.1,2.1,0,0,0,63,46.58Z"/><path d="M64.74,54.1a1.82,1.82,0,0,0-1.86-1.71h-.12c-2,0-2.5-.62-3.15-2.5L56.39,38a7.43,7.43,0,0,1,4.69,5.21s0,0,0,.08a1.84,1.84,0,0,0,2,1.49h0s-.17-1.46-.23-1.74a9.1,9.1,0,0,0-7-7l-1.94-7.18h.67A1.78,1.78,0,0,0,56.4,27h0l-14.55-.28h0a1.79,1.79,0,0,0,1.75,1.82h.23l-2.65,6.07a.52.52,0,0,1-.94,0l-2.39-6.18h0a1.78,1.78,0,0,0,1.82-1.75h0l-6.53-.12h0a1.79,1.79,0,0,0,1.75,1.82h.41l-2.26,7a8.44,8.44,0,0,0-1.33-.13,9.16,9.16,0,0,0-8.8,6.13l-4.43-.09a1.79,1.79,0,0,0-1.82,1.76h0l5.82.11a7.45,7.45,0,0,0-.08,1.06,8.8,8.8,0,0,0,.29,2.47l-4.33-.09h0a1.79,1.79,0,0,0,1.75,1.82l3.25.06A9.24,9.24,0,0,0,26,51.7l-3.37-.07h0a1.79,1.79,0,0,0,1.76,1.82l6.37.12c.22,0,.44,0,.66,0s.44,0,.66,0h.69v-.07a9.14,9.14,0,0,0,2.05-17.62l1.83-5.69,2,5.08h0a2.31,2.31,0,0,0,2.09,1.43h0a2.28,2.28,0,0,0,2.13-1.32l2.28-5.23L47.4,38.5a9.13,9.13,0,0,0,1,13.64l-1.79,0a1.8,1.8,0,0,0-1.82,1.76h0l8.13.15.4,0,.89,0h0l1.42,0a1.2,1.2,0,0,0,1.1-1.76h0l-3.29-.06A7.36,7.36,0,0,1,51,38.17l1.73,6.51a.9.9,0,0,0,1.1.63h0a.89.89,0,0,0,.63-1.09L50.31,28.71l1.74,0,5.84,21.65,0,.06c.94,2.73,2,3.67,4.73,3.72.37,0,.77,0,1.2,0l.9,0ZM38.91,44.61A7.36,7.36,0,0,1,32,51.81l-1.21,0a7.35,7.35,0,0,1,.89-14.67,7,7,0,0,1,.8.06l-2,6.17a.9.9,0,0,0,.58,1.13h0a.89.89,0,0,0,1.12-.58l2-6.28A7.39,7.39,0,0,1,38.91,44.61Zm11.6-8.19a9,9,0,0,0-1.6.84L46.5,28.64l2,0Z"/><path d="M22.74,43.37,1.44,43c-1,0-.64-.87-.62-1.92l22,.42Z"/><path d="M70.5,42.38l14.14.27c1,0,.64.86.62,1.92l-14.8-.29Z"/><path d="M42.25,72.66a29,29,0,1,1,29.6-28.49A29.08,29.08,0,0,1,42.25,72.66Zm1.08-56.12A27.08,27.08,0,1,0,69.88,44.13,27.11,27.11,0,0,0,43.33,16.54Z"/><path d="M13.3,23.59l-.57-4,.49-.73L19.3,23l-1.09,1.61-3.12-2.13.37,2.58-2.54.61L16,27.8l-1.1,1.6L8.86,25.26l.49-.73Z"/><path d="M19.83,12.92a3.68,3.68,0,1,1-.75,5.15A3.7,3.7,0,0,1,19.83,12.92ZM21,14.47a1.74,1.74,0,0,0-.36,2.45A1.76,1.76,0,1,0,21,14.47Z"/><path d="M34.84,13.61l-4.43-2.15,1.14,3.29-1.82.63-2.42-7,.75-.26,4.43,2.14L31.35,7l1.83-.64,2.41,7Z"/><path d="M38.05,5.47l5.8-.25.08,1.92-2,.09.24,5.44-1.93.09-.24-5.45-1.91.08Z"/><path d="M51.15,13.91l-.63-2.18-1.16-.29-.47,1.9L47,12.87l1.78-7.14,3,.75a2.7,2.7,0,0,1,2,3.28,2.73,2.73,0,0,1-1.32,1.72l.87,3ZM49.76,9.82l1.16.29a1.05,1.05,0,1,0,.51-2l-1.16-.29Z"/><path d="M59.14,9.07l4,2.21-.78,1.4-2.31-1.27-.58,1.05,2.05,1.13L60.74,15l-2.05-1.13L58,15.07l2.31,1.28-.76,1.38-4-2.21Z"/><path d="M61.67,19l7.6-2.87.63.61-2.67,7.69-1.38-1.35.35-1L64,20l-1,.38Zm4,.33,1.07,1.05.6-1.68Z"/><path d="M75,22.93l1,1.69-4.72,2.67,1.3,2.3-1.69,1-2.26-4Z"/><path d="M62.4,10.33l-1.17-.6h0a1,1,0,0,1,1.41-.45l1.17.6h0A1,1,0,0,1,62.4,10.33Z"/><path d="M34.78,60.51l1.94-1.7h.55l-.09,4.68-1.23,0,0-2.4-1.24,1.09L33.54,61l0,2.4-1.24,0,.09-4.68.56,0Z"/><path d="M40.71,60.62l1.93-1.7h.56l-.09,4.68-1.24,0,.05-2.41-1.25,1.1-1.2-1.14,0,2.4-1.23,0,.09-4.68h.55Z"/><path d="M48.71,59l-2.27,4.64h-.56l-2.09-4.72L45,59l1.18,2.69L47.49,59Z"/><path d="M49.3,59.05l1.23,0-.09,4.68-1.23,0Z"/><path d="M51.53,59.09l1.23,0-.09,4.67-1.23,0Z"/><path d="M6.9,56.18,12,54l1,2.24a1.67,1.67,0,0,1-.86,2.16,1.59,1.59,0,0,1-1,.07,1.64,1.64,0,0,1-.92,1.09A1.66,1.66,0,0,1,8,58.69ZM9,57.93a.47.47,0,0,0,.63.25.48.48,0,0,0,.25-.63l-.39-.9L8.58,57Zm1.89-1.12a.49.49,0,0,0,.63.25.48.48,0,0,0,.25-.63l-.28-.65-.88.39Z"/><path d="M14.69,59.54l.78,1.23-4.7,2.95L10,62.49Z"/><path d="M20.12,66.53l-3.57-.22-.26,4.24L14.93,69l.16-2.78-.49,0-1.21,1.06-1-1.09,4.15-3.67,1,1.09-1.4,1.24,2.63.16Z"/><path d="M21.56,67.73l2.73,2.1-.74,1L22,69.57l-.55.71,1.39,1.08-.75,1-1.39-1.08-.62.81,1.57,1.22-.73.94-2.72-2.1Z"/><path d="M29.79,72.9l2.19.8a2.06,2.06,0,0,1,1.22,2.62,2,2,0,0,1-2.59,1.22l-.85-.31-.5,1.38-1.37-.5Zm.4,3.15.85.31a.8.8,0,1,0,.54-1.5l-.85-.3Z"/><path d="M38.11,75.22A2.77,2.77,0,1,1,35,77.56,2.78,2.78,0,0,1,38.11,75.22Zm-.21,1.43a1.32,1.32,0,0,0-1.5,1.12,1.34,1.34,0,0,0,1.11,1.5,1.32,1.32,0,0,0,.39-2.62Z"/><path d="M42.75,75.61l1.46-.06.18,4.07,2-.09L46.45,81,43,81.15Z"/><path d="M50.49,74.7A2.77,2.77,0,1,1,48.43,78,2.77,2.77,0,0,1,50.49,74.7Zm.33,1.41a1.32,1.32,0,1,0,1.59,1A1.32,1.32,0,0,0,50.82,76.11Z"/><path d="M62.85,71.15a1.3,1.3,0,0,0-1,.2,1.3,1.3,0,1,0,1.41,2.19,1.27,1.27,0,0,0,.58-.82l1.42.29a2.72,2.72,0,0,1-1.2,1.76,2.77,2.77,0,1,1-.94-5Z"/><path d="M64.27,67.76l1-1,2.8,3,1.45-1.37,1,1.06-2.51,2.37Z"/><path d="M71.56,64.88a.72.72,0,0,0,.86-1.16l-2.67-2,.87-1.17,2.69,2a2.19,2.19,0,1,1-2.61,3.51l-2.69-2,.87-1.17Z"/><path d="M76.64,61.25l-5-2.41,1.06-2.2a1.67,1.67,0,0,1,2.2-.76,1.58,1.58,0,0,1,.74.75,1.68,1.68,0,0,1,1.42,0,1.65,1.65,0,0,1,.76,2.17Zm-2.11-3.41a.48.48,0,0,0-.86-.42l-.31.63.87.42Zm2.09.7a.49.49,0,0,0-.23-.64.5.5,0,0,0-.64.22l-.42.88.86.42Z"/></g></g></svg>