<svg xmlns="http://www.w3.org/2000/svg" viewBox="0 0 582.55 484.44"><defs><style>.cls-1{fill:#231f20;}.cls-2{fill:#fff;}</style></defs><title>Asset 3</title><g id="Layer_2" data-name="Layer 2"><g id="Layer_1-2" data-name="Layer 1"><path d="M91.49,465.52c-4.23-1.85-8.26-3.59-12.26-5.39-5.36-2.4-10.93-3.92-16.78-2.74a23.65,23.65,0,0,0-7.15,3.12c-3.25,1.94-6.26,4.28-9.42,6.37A8.43,8.43,0,0,1,43.17,468c-3.35.8-5.88-.68-6.73-4s-.64-6.62,1.59-9.27a45.89,45.89,0,0,1,7.66-7.6,29.83,29.83,0,0,0,9.39-11.33c1.75-3.63,3.51-7.25,5.11-10.55-3.41-.27-6.95-.36-10.41-.9a42.61,42.61,0,0,1-6.64-2.11,21.09,21.09,0,0,0-19.31,2.53c-2.5,1.67-5,3.36-7.53,5a12.75,12.75,0,0,1-9.87,1.75c-5.06-1.11-7.43-4.91-6-9.88A18.25,18.25,0,0,1,8.8,410.79a25,25,0,0,1,11.26-3.67c3.18-.25,6.36-.53,9.52-.9,5.82-.68,10.61-3.64,15.16-7.05,4-3,8-5.86,13.13-6.52-.75-4.88-5.71-9.72-10.43-9.85s-9.68.41-14.51.25a51.77,51.77,0,0,1-10.88-1.44,9.51,9.51,0,0,1-7-9.46c.25-4.93,3.24-9,7.68-9.78a31.87,31.87,0,0,1,7.5-.06,27.16,27.16,0,0,0,12.71-2.39,16.59,16.59,0,0,1,14.39.43c.61.29,1.23.54,1.86.79.09,0,.22,0,.54-.1-2.73-3.42-5.34-6.65-9.83-7.87-6-1.61-11.92-3.33-17.71-5.47-5.34-2-9.82-5.3-12.37-10.66-2-4.09.54-9,4.79-9.06a19.77,19.77,0,0,1,7.07,1.53,23,23,0,0,1,4.9,3.22c3.49,2.54,7.07,2.87,10.83.66a11.31,11.31,0,0,0,1.26-.75c3.64-2.74,7.62-4.15,12.49-3.1-2.67-4.66-5.9-8.29-11.15-9.05a123,123,0,0,0-13.17-1c-3.35-.12-6.59-.46-9.6-2.08a17.65,17.65,0,0,1-8-8.82,4.34,4.34,0,0,1,2.24-6,11.63,11.63,0,0,1,5.63-1.22,31.47,31.47,0,0,0,16.15-2.56c4.65-2.13,9.09-1.06,13.47.94a27.51,27.51,0,0,1,9.79,7.89c2,2.45,4,5,5.88,7.52.3.4.23,1.07.33,1.62-.55-.12-1.28,0-1.62-.38-2.39-2.36-4.72-4.79-7-7.23a26.53,26.53,0,0,0-9.44-6.86,13.07,13.07,0,0,0-11.19.53,24.5,24.5,0,0,1-15,2.11,12,12,0,0,0-4.5.28c-1.71.39-2,1.32-1.24,2.89a12.85,12.85,0,0,0,11.94,7.48c4.41.12,8.82.16,13.22.5a19.63,19.63,0,0,1,13.72,7.37c2.33,2.75,4.56,5.59,6.79,8.43.25.32.43,1.1.25,1.29a2.53,2.53,0,0,1-1.62.89c-2-.11-4-.35-6-.64a13.58,13.58,0,0,0-10.33,2.83c-6,4.34-11.52,4-17.33-.61-2.12-1.68-4.16-3.57-7.05-3.63a3.91,3.91,0,0,0-2.85.92c-.46.56-.29,2,.08,2.82,2,4.64,6,7.23,10.51,8.92,5.32,2,10.75,3.77,16.2,5.41,6,1.82,9.92,6,12.63,11.3a24.36,24.36,0,0,0,4.51,6.13,11.24,11.24,0,0,1,2,2.35c.31.57.07,1.43.08,2.17-.77,0-1.79.25-2.27-.13a33.8,33.8,0,0,1-3.65-3.63,18.76,18.76,0,0,0-17.12-6,4.71,4.71,0,0,0-1.85.74c-5.54,3.69-11.69,4.49-18.14,3.94-2.27-.19-4.27.16-5.68,2.2-2.4,3.44-1.4,7.5,2.63,8.54a63,63,0,0,0,12,1.5c3.85.23,7.73-.23,11.57,0,5.75.38,11.82,5.54,13.42,11.12a2.26,2.26,0,0,0,2.46,2c3.74.11,7.49.49,10.75,2.6.57.37.87,1.14,1.3,1.72a5.93,5.93,0,0,1-2.29.19c-5-1.79-10.12-2.8-15.28-1.13a33.69,33.69,0,0,0-7.5,3.74c-3.25,2.07-6.22,4.57-9.44,6.69-4.15,2.72-8.9,3.67-13.76,4.25A79.87,79.87,0,0,0,15.47,412a16.57,16.57,0,0,0-11.13,9.2c-2.08,4.34-.5,7.24,4.31,7.32a12.52,12.52,0,0,0,5.87-1.67c3.6-1.95,6.92-4.42,10.48-6.45a20.9,20.9,0,0,1,19.29-1.23c5.57,2.4,11.34,3,17.21,3.27.61,0,1.28-.49,1.88-.83,2.91-1.64,5.8-3.34,8.73-4.95a2.47,2.47,0,0,1,1.59-.18c.39.08.7.54,1,.83a5.08,5.08,0,0,1-1,.91c-1.88,1-3.87,1.83-5.67,3a17.29,17.29,0,0,0-6.54,7.77c-1.63,3.63-3.35,7.22-5,10.85a28.18,28.18,0,0,1-8.34,10.1,53.08,53.08,0,0,0-7.65,7.85c-.85,1-1,3-.82,4.48.19,2.14,1.77,2.95,3.7,1.87a48.6,48.6,0,0,0,7-4.71c3.87-3.15,8.05-5.75,13-6.5a29.72,29.72,0,0,1,20.42,4.36,87,87,0,0,0,8.55,4.23,2.35,2.35,0,0,0,3.39-1.1c4.94-8.29,12.52-12.35,21.91-13.28,3-.3,6.1-.24,9.15-.33a1.65,1.65,0,0,1,.89.14,10.25,10.25,0,0,1,1.14.95,4,4,0,0,1-1.33.62c-2.5.19-5,.12-7.5.46-6.89.94-13.22,3.19-18,8.63a14.88,14.88,0,0,0-2,2.66c-2.34,4.32-6,7.42-9.7,10.43-.43.35-.86.69-1.28,1.06-3.51,3.15-3.11,6.13,1.07,8.37,3.56,1.91,7.08,1.48,10.62,0s6.37-4.36,9-7.2a15.27,15.27,0,0,1,10.75-5.24c4.09-.28,8.2-.81,11.48-3.77.25-.22.86,0,1.3-.05-.07.55.07,1.4-.23,1.61-1.85,1.25-3.68,2.74-5.75,3.41a43.29,43.29,0,0,1-8.3,1.45,8.86,8.86,0,0,0-5.49,2.68c-2.23,2.28-4.28,4.77-6.69,6.83-5,4.31-10.74,6-17.23,3.55a11.25,11.25,0,0,1-1.8-.91c-5.58-3.38-6-8.71-1-12.94Z"/><path d="M291.86,426.33c-3.73,2-7.33,4-11.65,3a51.69,51.69,0,0,1-7.4-2.34c-4.27-1.71-8.38-1.17-12.36.71s-8.19,3.57-12.8,3.31a35.42,35.42,0,0,1-5.54-.71c-.63-.14-1.1-1-1.65-1.53.63-.27,1.27-.79,1.89-.76,6,.24,11.81-.41,17.39-3.12,5.17-2.5,10.53-2.13,15.79.33,4.2,2,8.55,2.77,13.06.79C289.55,425.61,290.71,425.1,291.86,426.33Z"/><path class="cls-1" d="M545.58,158.62,482.24,162l-3.76-94.18,64.33-4.6,2.08,26.27-36,.81.88,10.62,18.59-.73,2,23.9-19.25-.65.75,11.33,31.82-1.45Z"/><path class="cls-1" d="M481.07,163.33l-3.85-96.6L543.93,62l2.28,28.77-36,.81.68,8.17L529.52,99l2.25,26.42-19.27-.65.58,8.8,31.81-1.45,2,27.68ZM479.75,69l3.66,91.77,60.87-3.3-1.65-22.83-31.83,1.45-.91-13.87,19.21.65-1.82-21.36-18.59.73-1.08-13.08,36-.81-1.88-23.78Z"/><path class="cls-1" d="M400.2,164.8,390.33,80,446.92,105l-6.65-36.92,35.43-5.83,13.09,91.86-58.44-19.56L434.27,161Z"/><path class="cls-1" d="M399.13,166.15,388.88,78.07l56.43,24.86-6.46-35.88,37.88-6.24,13.54,95.06-58.43-19.56L435.66,162ZM391.79,82l9.48,81.45,31.61-3.56-4-27.16L487.3,152.3,474.67,63.62l-33,5.43,6.83,38Z"/><path class="cls-1" d="M364.28,163.76l-2.72-90.54h33.05L394,163.3Z"/><path class="cls-1" d="M363.1,165l-2.8-93h35.54l-.61,92.49Zm-.28-90.56,2.64,88.08,27.35-.42.57-87.65Z"/><path class="cls-1" d="M295.25,75.57l76.95-4,1,25.63L347,98.87l2,66.62-31,1.26-.47-66-21.19,1.34Z"/><path class="cls-1" d="M316.79,168l-.47-66-21.15,1.34L294,74.41l1.2-.06,78.18-4.07,1.12,28.05L348.26,100l2,66.65Zm1.95-68.6.47,66.06,28.52-1.16-2-66.59L372,96.05,371,72.84l-74.51,3.88,1,24Z"/><path class="cls-1" d="M256.54,79.14q-1.79,4.94-3.42,11.35a133.05,133.05,0,0,0-2.84,14.05c-1.7,11.62-1.12,20.06,1.68,25.2a16.27,16.27,0,0,0,2.22,3.31,14.54,14.54,0,0,0,6.32,3.74,14.15,14.15,0,0,0,7.19.28,10.49,10.49,0,0,0,3.89-1.78,12.83,12.83,0,0,0,3.74-4.53c2.61-5,3.11-12.33,1.5-22a91.26,91.26,0,0,0-4-15.58c-.7-2.22-1.61-4.76-2.69-7.63l-1.4-3.68-1.4-3.79,32.4-2.91q17.34,51.38.4,77.22a39.33,39.33,0,0,1-22.69,16.78,47.92,47.92,0,0,1-10,1.66c-1.25.05-2.44.05-3.63,0a11.21,11.21,0,0,0-1.3-.06,5.44,5.44,0,0,1-.92-.05c-9.35-.88-17.29-3.76-23.94-8.7a44.1,44.1,0,0,1-12.3-14.35c-5.77-10.77-8-24.51-6.63-41.33a162.2,162.2,0,0,1,3.06-19.62c1.15-5.08,2.45-10.11,4-15.08Z"/><path class="cls-1" d="M265.7,172.07c-.65,0-1.28,0-1.92,0-.84-.1-1.54,0-2.33-.12C252,171,243.72,168,237,163a45.41,45.41,0,0,1-12.65-14.74c-5.89-11-8.16-25.13-6.78-42a165.86,165.86,0,0,1,3.09-19.78c1.26-5.57,2.58-10.54,4.06-15.19l.34-1.09,33.13,8.11-.46,1.28c-1.18,3.24-2.32,7-3.39,11.24a132.15,132.15,0,0,0-2.81,13.93c-1.66,11.3-1.13,19.53,1.54,24.44a14,14,0,0,0,2,3,13.45,13.45,0,0,0,5.8,3.43,13,13,0,0,0,6.57.27,9.54,9.54,0,0,0,3.46-1.58,11.93,11.93,0,0,0,3.37-4.11c2.47-4.75,2.93-11.9,1.38-21.25a91.23,91.23,0,0,0-3.93-15.39c-.62-2-1.44-4.32-2.67-7.59l-3.35-9,34.94-3.14.3.91c11.63,34.44,11.72,60.78.27,78.28a40.65,40.65,0,0,1-23.37,17.28,49.19,49.19,0,0,1-10.27,1.7C266.91,172.06,266.3,172.07,265.7,172.07Zm-39-99c-1.32,4.28-2.52,8.83-3.66,13.9a161.9,161.9,0,0,0-3,19.46c-1.35,16.4.84,30.08,6.5,40.64a42.91,42.91,0,0,0,11.95,14c6.5,4.82,14.13,7.59,23.33,8.45l.13,0a4.17,4.17,0,0,0,.66,0,14.55,14.55,0,0,1,1.46.07c1.06.05,2.21.05,3.42,0a46.11,46.11,0,0,0,9.73-1.62,38.24,38.24,0,0,0,22-16.27c10.92-16.68,10.84-42-.23-75.25l-29.85,2.69,2.24,6c1.25,3.32,2.08,5.69,2.71,7.69a92.08,92.08,0,0,1,4,15.77c1.66,10,1.13,17.45-1.62,22.75a14.24,14.24,0,0,1-4.1,5,11.85,11.85,0,0,1-4.35,2,15.29,15.29,0,0,1-7.79-.3,15.81,15.81,0,0,1-6.86-4.05,16.3,16.3,0,0,1-2.41-3.58c-2.94-5.39-3.56-14.13-1.83-26a134.58,134.58,0,0,1,2.87-14.19c.95-3.75,2-7.16,3-10.18Z"/><path class="cls-1" d="M191.91,171.73a48.47,48.47,0,0,1-19.38-.84,44.45,44.45,0,0,1-16.24-7.75,42.8,42.8,0,0,1-16.87-31.39A46.61,46.61,0,0,1,142,112.63a54.6,54.6,0,0,1,43-36.1,48.46,48.46,0,0,1,19.38.84,43.61,43.61,0,0,1,16.3,7.73,42.29,42.29,0,0,1,11.61,13.53,43.07,43.07,0,0,1,5.2,17.88A47.53,47.53,0,0,1,235,135.62a54.14,54.14,0,0,1-9.45,16.81A53,53,0,0,1,191.91,171.73Zm-22.39-44.31a16.75,16.75,0,0,0,6.64,12.48,18.34,18.34,0,0,0,14.21,3.4,21,21,0,0,0,13.4-7.69,19.42,19.42,0,0,0,4.77-14.26,16.46,16.46,0,0,0-6.74-12.46,17.76,17.76,0,0,0-14.15-3.41,21.15,21.15,0,0,0-13.4,7.69A19.6,19.6,0,0,0,169.52,127.42Z"/><path class="cls-1" d="M184.21,173.55a49.17,49.17,0,0,1-12-1.47,45.86,45.86,0,0,1-16.69-8,44,44,0,0,1-17.34-32.27,48.11,48.11,0,0,1,2.62-19.61,55.87,55.87,0,0,1,44-36.9,49.83,49.83,0,0,1,19.86.85,44.55,44.55,0,0,1,16.74,8,43.59,43.59,0,0,1,11.94,13.91,44.43,44.43,0,0,1,5.35,18.37A48.83,48.83,0,0,1,236.16,136a55.36,55.36,0,0,1-9.66,17.19,54.46,54.46,0,0,1-34.4,19.73h0A51.45,51.45,0,0,1,184.21,173.55Zm8.52-96.4a49,49,0,0,0-7.51.59A53.36,53.36,0,0,0,143.14,113a45.54,45.54,0,0,0-2.5,18.64A41.58,41.58,0,0,0,157,162.17a43.33,43.33,0,0,0,15.8,7.54,47.76,47.76,0,0,0,18.89.82,52.15,52.15,0,0,0,32.9-18.87,53.15,53.15,0,0,0,9.24-16.44,46.54,46.54,0,0,0,2.45-18.62,41.86,41.86,0,0,0-5.06-17.38A41.08,41.08,0,0,0,220,86.07a42.31,42.31,0,0,0-15.85-7.52A46.87,46.87,0,0,0,192.73,77.15Zm-5.56,67.61a19.19,19.19,0,0,1-11.74-3.88,17.94,17.94,0,0,1-7.12-13.37h0a20.82,20.82,0,0,1,5-15.1,22.47,22.47,0,0,1,14.15-8.12,18.94,18.94,0,0,1,15.08,3.65,17.62,17.62,0,0,1,7.22,13.33,20.7,20.7,0,0,1-5.06,15.13,22.35,22.35,0,0,1-14.15,8.12A24.59,24.59,0,0,1,187.17,144.76Zm-16.43-17.43a15.58,15.58,0,0,0,6.17,11.61,17.11,17.11,0,0,0,13.28,3.16,19.7,19.7,0,0,0,12.64-7.27,18.34,18.34,0,0,0,4.5-13.39,15.3,15.3,0,0,0-6.26-11.57,16.63,16.63,0,0,0-13.24-3.18A19.82,19.82,0,0,0,175.18,114,18.41,18.41,0,0,0,170.74,127.33Z"/><path class="cls-1" d="M72.35,60.35a169.87,169.87,0,0,1,46.22-4.51c13.61.49,24.52,3,32.8,7.48,10.25,5.54,15.94,14.15,17.11,25.69q3.06,31.33-19.6,45.67a52.47,52.47,0,0,1-18.08,7c-5.5,1.06-9.89,1.16-13.09.3l2.63,29.37-39.18,5Zm59.93,36.81a16.49,16.49,0,0,0-3.41-9.7,17,17,0,0,0-6.64-4.78,22.93,22.93,0,0,0-9.36-1.75l2.65,32.31a19.48,19.48,0,0,0,8.69-1.71C129.91,109,132.6,104.21,132.28,97.16Z"/><path class="cls-1" d="M80,177.77l-9-118.36,1-.24a171.34,171.34,0,0,1,46.54-4.55c13.72.5,24.93,3.06,33.34,7.62C162.5,68,168.48,76.92,169.7,88.88c2.07,21.33-4.71,37.09-20.17,46.84a54,54,0,0,1-18.5,7.19,35.72,35.72,0,0,1-12,.63l2.59,28.9ZM73.65,61.3,82.27,175,119,170.32l-2.68-29.93,1.69.44c3,.81,7.23.7,12.54-.32a51.44,51.44,0,0,0,17.67-6.86c14.6-9.21,21-24.19,19-44.52-1.13-11.11-6.68-19.44-16.48-24.74-8.08-4.38-18.93-6.85-32.27-7.33A169.18,169.18,0,0,0,73.65,61.3Zm42.61,53.17h-.78l-1.08,0-2.85-34.67,1.28,0a24.25,24.25,0,0,1,9.85,1.84,18.32,18.32,0,0,1,7.13,5.14,17.73,17.73,0,0,1,3.69,10.4v0c.34,7.51-2.62,12.74-8.78,15.53A20.88,20.88,0,0,1,116.26,114.47Zm-2.07-32.32L116.65,112a18.35,18.35,0,0,0,7.08-1.62c5.22-2.36,7.63-6.68,7.34-13.19a15.35,15.35,0,0,0-3.15-9,15.87,15.87,0,0,0-6.16-4.43A22.39,22.39,0,0,0,114.19,82.15Z"/><path class="cls-1" d="M477.07,191.4l79.31-2.17.41,26.41-27,1.07.35,68.63-31.93.51,1.2-68-21.86.85Z"/><path class="cls-1" d="M496.93,287.09l1.2-68-21.82.84-.48-29.75L557.58,188l.45,28.83-27,1.07.35,68.66Zm3.68-70.5-1.2,68,29.47-.47-.35-68.61,27-1.06-.37-24-76.87,2.11.4,24.85Z"/><path class="cls-1" d="M489.53,282.17l-65.09,5.67-7-96.81,66-6.91,3,27-37,2,1.26,10.9,19.11-1.38,2.9,24.53-19.82,0,1.15,11.64,35-2.54Z"/><path class="cls-1" d="M423.32,289.16l-7.22-99.22,68.43-7.16,3.31,29.45-37,2.05,1,8.46L471,221.37l3.19,27-19.85,0,.9,9.11L490.27,255l.49,28.33Zm-4.61-97,6.86,94.4,62.72-5.46-.41-23.48L453,260.11,451.6,246l19.8,0-2.6-22-19.11,1.38L448.14,212l37-2.05-2.75-24.48Z"/><path class="cls-1" d="M295.84,288l-65,6.86-8.82-96.67L288,190l3.52,26.91-36.93,2.73L256,230.54l19.08-1.73,3.35,24.47-19.82.34L260,265.24l32.65-3.17Z"/><path class="cls-1" d="M229.77,296.15l-9-99.07L289,188.66l3.85,29.39-36.93,2.73,1.13,8.44,19.08-1.73,3.7,27-19.85.35,1.06,9.09,32.65-3.17L297.2,289Zm-6.4-96.94,8.6,94.26,62.5-6.6-2.9-23.47-32.66,3.17-1.66-14.15,19.8-.34-3-22L255,231.86l-1.79-13.32,36.94-2.73-3.2-24.43Z"/><path class="cls-1" d="M176.72,200.91l1.2,32.94,19,1.15.13-37.7,30.6-.3,2.79,92.47-33.86.8.17-31.18-17.93-.64,1.2,35.4-32.25.5-4.85-91.2Z"/><path class="cls-1" d="M146.62,295.59l-5-93.58,36.24-2.4,1.21,33.09,16.62,1,.13-37.6,33-.33,2.86,94.89-36.34.86.17-31.25-15.44-.55,1.21,35.33Zm-2.41-91.3,4.72,88.82,29.84-.45-1.21-35.47,20.42.73-.17,31.1,31.38-.74-2.72-90-28.19.28-.13,37.78L176.74,235l-1.19-32.8Z"/><path class="cls-1" d="M75.08,208.52l78.62-10.67,3.24,26.22-26.77,4,7.71,68.2-31.69,3.93-6.1-67.72-21.64,3.19Z"/><path class="cls-1" d="M105.09,301.52,99,233.82,77.39,237l-3.67-29.53,81-11,3.54,28.62-26.78,4,7.71,68.23ZM101.19,231l6.1,67.75,29.25-3.63L128.83,227l26.76-4-3-23.81-76.2,10.34,3.07,24.67Z"/><path class="cls-1" d="M325.46,277.82,335,190.46l51.07,38,1.81-38.59,36.91,2.29-8,95.23-54.17-33.07-2.14,27.44Z"/><path class="cls-1" d="M417.9,289.5l-54.16-33.07-2.08,26.73-37.55-4.27,9.95-90.67L385,226.15l1.76-37.53,39.39,2.44Zm-56.28-37.22,54.18,33.08,7.71-92-34.43-2.14-1.86,39.64L336,192.71l-9.22,84,32.62,3.7Z"/><path class="cls-2" d="M537.55,163.64l-63.35,3.43-3.75-94.18,64.32-4.61,2.09,26.27-36,.82.88,10.62,18.59-.73,2,23.89-19.24-.65.75,11.34,31.82-1.45Z"/><path class="cls-1" d="M472.49,169l-3.9-97.72,67.83-4.86,2.37,29.93-35.95.81.58,7,18.58-.73,2.36,27.6-19.28-.65.5,7.61,31.81-1.45,2.07,28.81Zm-.18-94.4,3.61,90.64L535.63,162l-1.56-21.69-31.83,1.44-1-15,19.21.65-1.72-20.18-18.59.73L499,93.62l36-.81L533.13,70.2Z"/><path class="cls-2" d="M392.17,169.83,382.3,85.07,438.88,110l-6.65-36.92,35.43-5.83,13.1,91.86-58.45-19.56L426.24,166Z"/><path class="cls-1" d="M390.6,171.81,380.16,82.17,436.52,107l-6.37-35.39,39-6.43,13.76,96.55-58.43-19.56,3.77,25.4ZM384.44,88l9.3,79.89,30.46-3.42-4.09-27.5,58.46,19.56L466.15,69.31l-31.83,5.24L441.24,113Z"/><path class="cls-2" d="M356.24,168.79l-2.71-90.55,33,0L386,168.32Z"/><path class="cls-1" d="M354.51,170.61l-2.83-94.16,36.7,0-.62,93.62ZM355.37,80,358,167l26.23-.41.56-86.51Z"/><path class="cls-2" d="M287.22,80.59l76.94-4,1,25.63L339,103.9l2,66.62-31,1.25-.47-66-21.19,1.34Z"/><path class="cls-1" d="M308.19,173.64l-.46-66L286.59,109,285.36,78.9l80.52-4.19,1.17,29.18-26.24,1.68,2,66.66Zm3.09-69.8.46,66.07,27.37-1.11-2-66.58,26.2-1.68-.88-22.07-73.37,3.82.94,22.9Z"/><path class="cls-2" d="M248.51,84.16q-1.8,4.95-3.43,11.35a133.6,133.6,0,0,0-2.83,14.06c-1.7,11.62-1.12,20.06,1.68,25.2a15.9,15.9,0,0,0,2.21,3.3,14.52,14.52,0,0,0,6.32,3.75,14.26,14.26,0,0,0,7.19.28,10.46,10.46,0,0,0,3.9-1.78,12.93,12.93,0,0,0,3.74-4.53c2.61-5,3.1-12.33,1.5-22a92,92,0,0,0-4-15.58c-.7-2.22-1.62-4.76-2.69-7.63l-1.4-3.68-1.4-3.79,32.39-2.92q17.36,51.39.41,77.23a39.41,39.41,0,0,1-22.69,16.78,48,48,0,0,1-10,1.65c-1.24.06-2.43,0-3.62,0a9.43,9.43,0,0,0-1.3-.06,5.38,5.38,0,0,1-.92-.05c-9.35-.89-17.3-3.77-23.94-8.7a44.1,44.1,0,0,1-12.3-14.35c-5.77-10.77-8-24.51-6.63-41.33a162.2,162.2,0,0,1,3.06-19.62c1.14-5.09,2.45-10.11,4-15.08Z"/><path class="cls-1" d="M257.65,177.67c-.65,0-1.29,0-1.93,0h-.14a9.31,9.31,0,0,0-1.09,0,6.8,6.8,0,0,1-1.15-.07c-9.59-.92-17.92-4-24.76-9a46.07,46.07,0,0,1-12.8-14.93c-5.94-11.1-8.24-25.34-6.85-42.34A166.71,166.71,0,0,1,212,91.35c1.26-5.6,2.59-10.58,4.07-15.25l.51-1.59,34.26,8.39-.68,1.87c-1.17,3.23-2.3,7-3.37,11.19a130,130,0,0,0-2.8,13.87c-1.64,11.18-1.14,19.28,1.48,24.08a13.8,13.8,0,0,0,1.91,2.9A12.83,12.83,0,0,0,253,140.1a12.42,12.42,0,0,0,6.28.26,8.86,8.86,0,0,0,3.26-1.49,11.35,11.35,0,0,0,3.2-3.9c2.41-4.65,2.85-11.68,1.32-20.9a89.61,89.61,0,0,0-3.9-15.3c-.63-2-1.45-4.32-2.67-7.57l-3.61-9.67L293,78.28l.45,1.33c11.69,34.62,11.76,61.13.2,78.78a41.24,41.24,0,0,1-23.69,17.52,49.68,49.68,0,0,1-10.39,1.72C258.89,177.66,258.27,177.67,257.65,177.67ZM256,174.05c1.11,0,2.23.06,3.4,0a46.3,46.3,0,0,0,9.59-1.6,37.69,37.69,0,0,0,21.68-16c10.78-16.47,10.72-41.47-.15-74.34l-28.66,2.58,2,5.26c1.25,3.33,2.09,5.71,2.72,7.73a92.41,92.41,0,0,1,4,15.86c1.68,10.11,1.13,17.67-1.68,23.09a15,15,0,0,1-4.26,5.15,12.45,12.45,0,0,1-4.57,2.08,15.71,15.71,0,0,1-8.07-.3,16.39,16.39,0,0,1-7.11-4.2,17.6,17.6,0,0,1-2.51-3.71c-3-5.5-3.63-14.36-1.88-26.32a134.46,134.46,0,0,1,2.87-14.24c.9-3.52,1.84-6.75,2.82-9.64L219,78.78c-1.26,4.11-2.4,8.5-3.5,13.34a162.32,162.32,0,0,0-3,19.39c-1.34,16.29.82,29.86,6.42,40.32a42.32,42.32,0,0,0,11.8,13.76c6.41,4.77,13.95,7.5,23,8.35l.19,0a4.62,4.62,0,0,0,.56,0A12.38,12.38,0,0,1,256,174.05Z"/><path class="cls-2" d="M183.88,176.76a48.64,48.64,0,0,1-19.38-.84,44.37,44.37,0,0,1-16.24-7.75,42.8,42.8,0,0,1-16.87-31.39A46.77,46.77,0,0,1,134,117.66,54.6,54.6,0,0,1,177,81.56a48.65,48.65,0,0,1,19.38.83,43.52,43.52,0,0,1,16.29,7.74,42.27,42.27,0,0,1,11.62,13.52,43.11,43.11,0,0,1,5.2,17.89A47.55,47.55,0,0,1,227,140.65a54.66,54.66,0,0,1-9.45,16.81A53.09,53.09,0,0,1,183.88,176.76Zm-22.39-44.31a16.75,16.75,0,0,0,6.64,12.48,18.32,18.32,0,0,0,14.2,3.4,21,21,0,0,0,13.4-7.69,19.47,19.47,0,0,0,4.78-14.26,16.45,16.45,0,0,0-6.74-12.46,17.78,17.78,0,0,0-14.16-3.41,21.18,21.18,0,0,0-13.4,7.69A19.59,19.59,0,0,0,161.49,132.45Z"/><path class="cls-1" d="M176.18,179.14a49.82,49.82,0,0,1-12.11-1.48,46.44,46.44,0,0,1-16.9-8.07,44.56,44.56,0,0,1-17.57-32.68,48.79,48.79,0,0,1,2.66-19.85,56.4,56.4,0,0,1,44.46-37.27,50.59,50.59,0,0,1,20.09.87,45,45,0,0,1,16.95,8,44.14,44.14,0,0,1,12.1,14.09,44.88,44.88,0,0,1,5.41,18.61,49.46,49.46,0,0,1-2.6,19.82,56.26,56.26,0,0,1-9.76,17.36,55,55,0,0,1-34.76,19.94h0A52.47,52.47,0,0,1,176.18,179.14Zm8.52-96.39a48,48,0,0,0-7.43.58,52.86,52.86,0,0,0-41.62,34.89,45.38,45.38,0,0,0-2.48,18.42,41.07,41.07,0,0,0,16.17,30.11,43,43,0,0,0,15.6,7.44,47,47,0,0,0,18.66.8,51.51,51.51,0,0,0,32.55-18.67,52.87,52.87,0,0,0,9.13-16.25,45.85,45.85,0,0,0,2.42-18.4,41.4,41.4,0,0,0-5-17.15,40.57,40.57,0,0,0-11.13-13A41.73,41.73,0,0,0,196,84.13,46.27,46.27,0,0,0,184.7,82.75Zm-5.57,67.61a19.7,19.7,0,0,1-12.07-4,18.49,18.49,0,0,1-7.36-13.78h0a21.4,21.4,0,0,1,5.13-15.51,23.09,23.09,0,0,1,14.51-8.32,19.57,19.57,0,0,1,15.52,3.76,18.23,18.23,0,0,1,7.44,13.74,21.32,21.32,0,0,1-5.19,15.55,22.92,22.92,0,0,1-14.5,8.31A24.62,24.62,0,0,1,179.13,150.36Zm-15.86-18a15.05,15.05,0,0,0,5.95,11.19,16.57,16.57,0,0,0,12.86,3.05,19.19,19.19,0,0,0,12.27-7.06,17.8,17.8,0,0,0,4.38-13,14.54,14.54,0,0,0-6-11.14,15.83,15.83,0,0,0-12.8-3.08,19.31,19.31,0,0,0-12.3,7.07A17.89,17.89,0,0,0,163.27,132.32Z"/><path class="cls-2" d="M64.32,65.38a169.76,169.76,0,0,1,46.21-4.51c13.62.49,24.53,3,32.8,7.47,10.26,5.55,15.94,14.16,17.12,25.7q3,31.32-19.6,45.67a52.54,52.54,0,0,1-18.08,7c-5.5,1-9.89,1.15-13.09.3l2.63,29.37-39.19,5Zm59.93,36.81a16.49,16.49,0,0,0-3.41-9.7,17.08,17.08,0,0,0-6.65-4.78A22.88,22.88,0,0,0,104.83,86l2.66,32.32a19.62,19.62,0,0,0,8.69-1.71C121.87,114,124.57,109.24,124.25,102.19Z"/><path class="cls-1" d="M71.48,183.44,62.42,64l1.48-.35a172.08,172.08,0,0,1,46.7-4.56c13.8.5,25.1,3.09,33.59,7.69,10.73,5.81,16.8,14.92,18,27.08,2.1,21.57-4.78,37.5-20.43,47.38a54.69,54.69,0,0,1-18.7,7.27,38.24,38.24,0,0,1-11.43.73L114.25,178ZM66.22,66.77l8.55,112.64,35.6-4.56-2.7-30.2,2.47.66c2.93.78,7.07.67,12.29-.33a50.78,50.78,0,0,0,17.47-6.79c14.61-9.21,20.75-23.6,18.77-44-1.11-10.91-6.56-19.08-16.19-24.29-8-4.34-18.76-6.78-32-7.26A168.75,168.75,0,0,0,66.22,66.77Zm42,53.3h-.81l-1.58-.06L102.9,84.23l1.88-.07a25,25,0,0,1,10.08,1.89,19,19,0,0,1,7.36,5.3A18.42,18.42,0,0,1,126,102.09v0c.35,7.77-2.72,13.18-9.12,16.08A21.35,21.35,0,0,1,108.23,120.07Zm-1.45-32.29,2.36,28.69a18.41,18.41,0,0,0,6.33-1.55c5-2.25,7.27-6.39,7-12.64a14.83,14.83,0,0,0-3-8.67,15.19,15.19,0,0,0-5.94-4.25A21.45,21.45,0,0,0,106.78,87.78Z"/><path class="cls-2" d="M469,196.43l79.31-2.17.41,26.41-27,1.06.35,68.64-31.93.5,1.2-68-21.86.84Z"/><path class="cls-1" d="M488.26,292.75l1.2-67.95-21.79.85-.51-31,83-2.28.47,30.08-27.06,1.06.35,68.68ZM493.21,221,492,289l28.2-.45L519.87,220l27-1.06-.35-22.75-75.63,2.07.38,23.6Z"/><path class="cls-2" d="M481.49,287.2l-65.08,5.66-7-96.81,66.05-6.9,3,27-37,2,1.26,10.91,19.11-1.38,2.9,24.52-19.83,0,1.15,11.64,32.7-2.56Z"/><path class="cls-1" d="M414.71,294.86,407.4,194.41l69.65-7.29,3.45,30.73-37,2,.84,7.21,19.1-1.37,3.35,28.33L447,254l.77,7.82,32.69-2.57,3.11,29.58Zm-3.37-97.16,6.77,93.17,61.35-5.34-2.34-22.28-32.71,2.56-1.53-15.46,19.78,0-2.45-20.71L441.1,231l-1.69-14.6,37-2.05-2.61-23.21Z"/><path class="cls-2" d="M287.8,293l-65,6.86L214,203.17l65.91-8.12L283.45,222l-36.94,2.73L248,235.57l19.08-1.73,3.35,24.46-19.83.35L252,270.27l32.65-3.17Z"/><path class="cls-1" d="M221,302.08l-9.18-100.69,69.88-8.61,4.06,31.05-36.93,2.73.92,6.8,19.07-1.73,3.93,28.67-19.87.35.87,7.39,32.64-3.16,3.7,29.9ZM216.23,205l8.45,92.64,60.85-6.42-2.71-21.85-32.66,3.17-1.86-15.84,19.78-.34L265.3,236l-19.08,1.73-2-15,36.94-2.73-3-22.76Z"/><path class="cls-2" d="M168.69,205.93l1.2,32.95,19,1.15.13-37.7,30.59-.31,2.79,92.48-33.86.79.17-31.17-17.93-.64,1.21,35.4-32.26.5-4.84-91.2Z"/><path class="cls-1" d="M137.81,301.45l-5.06-95.17,37.9-2.52,1.21,33.2,15,.9.13-37.55,34.6-.34,2.91,96.52-38,.89.16-31.29-13.76-.5,1.2,35.3ZM137,210.08l4.64,87.23,28.21-.43-1.21-35.51,22.09.78-.17,31.06,29.72-.7-2.67-88.43-26.59.27-.13,37.84-23-1.39-1.19-32.7Z"/><path class="cls-2" d="M67.05,213.54l78.62-10.66,3.24,26.21-26.77,4,7.71,68.2-31.69,3.93-6.11-67.72-21.63,3.18Z"/><path class="cls-1" d="M96.32,307.46l-6.1-67.67L68.65,243,64.78,211.8l82.66-11.22,3.74,30.24-26.8,4L132.1,303Zm-2.43-72.33L100,302.9l27.6-3.42-7.71-68.16,26.75-3.95-2.74-22.2L69.32,215.29l2.86,23Z"/><path class="cls-2" d="M317.42,282.85,327,195.49l51.06,38,1.82-38.59,36.9,2.29-8,95.22-54.16-33.07-2.14,27.45Z"/><path class="cls-1" d="M410.4,295.58l-54.15-33.06-2.05,26.36-38.81-4.41,10.14-92.38L376.4,230l1.74-37,40.65,2.53ZM353,256.25l54.19,33.08L414.8,199l-33.16-2.06-1.89,40.18-51.26-38.18-9,82.33,31.36,3.56Z"/><path class="cls-2" d="M124,393.07l-5.24.92,3.11,16.22-7.61,1.51-2.76-16.46-6.48,1.14-1.26-6.3,18.95-3.54Z"/><path class="cls-1" d="M113.63,412.68l-2.77-16.48-6.45,1.13-1.57-7.87,20.54-3.85,1.61,8.12-5.24.92,3.1,16.2Zm-1.44-18.36L115,410.76l6-1.19-3.11-16.24,5.23-.92-1-4.91-17.35,3.25.94,4.71Z"/><path class="cls-2" d="M144,406.77a12.24,12.24,0,0,1-4.83-.51,11.2,11.2,0,0,1-3.94-2.18,10.82,10.82,0,0,1-2.7-3.56,10.7,10.7,0,0,1-1-4.54,11.72,11.72,0,0,1,.93-4.74,13.49,13.49,0,0,1,2.61-4.06,13.29,13.29,0,0,1,8.7-4.3,12.19,12.19,0,0,1,4.83.5,10.86,10.86,0,0,1,3.95,2.19,10.55,10.55,0,0,1,2.7,3.55,10.78,10.78,0,0,1,1,4.55,11.78,11.78,0,0,1-.92,4.74,13.64,13.64,0,0,1-2.61,4A13.28,13.28,0,0,1,144,406.77Zm-4.91-11.42a4.18,4.18,0,0,0,1.46,3.22,4.59,4.59,0,0,0,3.5,1.07,5.27,5.27,0,0,0,3.47-1.72,4.86,4.86,0,0,0,1.41-3.48,4.09,4.09,0,0,0-1.5-3.22,4.4,4.4,0,0,0-3.48-1.07,5.36,5.36,0,0,0-3.47,1.72A4.92,4.92,0,0,0,139.05,395.35Z"/><path class="cls-1" d="M142.78,407.63a12.79,12.79,0,0,1-3.89-.59,12.08,12.08,0,0,1-4.23-2.35,11.51,11.51,0,0,1-4-8.7,12.59,12.59,0,0,1,1-5.07,14.35,14.35,0,0,1,2.76-4.29,14.15,14.15,0,0,1,9.23-4.56,13.07,13.07,0,0,1,5.14.54A11.58,11.58,0,0,1,153,385a11.38,11.38,0,0,1,2.9,3.83,11.68,11.68,0,0,1,1.11,4.88,12.78,12.78,0,0,1-1,5.06,14.27,14.27,0,0,1-2.77,4.29,14.12,14.12,0,0,1-9.22,4.57h0C143.62,407.62,143.2,407.63,142.78,407.63Zm2.09-24a9.94,9.94,0,0,0-1.09.05,12.38,12.38,0,0,0-8.19,4.05,12.5,12.5,0,0,0-2.44,3.8,10.87,10.87,0,0,0-.88,4.42,10.15,10.15,0,0,0,.95,4.22,9.91,9.91,0,0,0,2.51,3.28,10.34,10.34,0,0,0,3.65,2,11.57,11.57,0,0,0,4.51.47,12.38,12.38,0,0,0,8.18-4,12.88,12.88,0,0,0,2.46-3.81,11.19,11.19,0,0,0,.86-4.42,10,10,0,0,0-.95-4.21,9.73,9.73,0,0,0-2.49-3.29,10.16,10.16,0,0,0-3.66-2A11.25,11.25,0,0,0,144.87,383.64Zm-1.34,16.83a5.32,5.32,0,0,1-3.54-1.28,5,5,0,0,1-1.76-3.82h0a5.73,5.73,0,0,1,1.62-4.05,6.18,6.18,0,0,1,4-2,5.27,5.27,0,0,1,4.09,1.27,4.87,4.87,0,0,1,1.77,3.81,5.69,5.69,0,0,1-1.63,4.06,6.09,6.09,0,0,1-4,2A5.33,5.33,0,0,1,143.53,400.47Zm-3.67-5.12a3.37,3.37,0,0,0,1.19,2.61,3.76,3.76,0,0,0,2.89.87,4.45,4.45,0,0,0,2.94-1.46,4,4,0,0,0,1.2-2.93,3.32,3.32,0,0,0-1.21-2.6A3.62,3.62,0,0,0,144,391a4.46,4.46,0,0,0-3,1.47A4,4,0,0,0,139.86,395.35Z"/><path class="cls-2" d="M170.61,379.77c-.17.86-.31,1.83-.42,2.93a34.59,34.59,0,0,0-.18,3.58c0,2.94.47,5,1.36,6.18a3.58,3.58,0,0,0,.67.73,3.49,3.49,0,0,0,1.7.69,3.65,3.65,0,0,0,1.79-.19,2.7,2.7,0,0,0,.9-.59,3.23,3.23,0,0,0,.75-1.26q.69-2-.44-5.5a23.74,23.74,0,0,0-1.57-3.71c-.25-.52-.58-1.12-.95-1.79l-.48-.85-.49-.89,7.91-1.93q6.21,12.07,3,19.09a9.83,9.83,0,0,1-5,5,11.21,11.21,0,0,1-2.42.78c-.3.06-.6.11-.9.14l-.32,0a.93.93,0,0,1-.23,0A11.59,11.59,0,0,1,169,401a11.06,11.06,0,0,1-3.57-3.09q-2.75-3.67-3.19-10a41.42,41.42,0,0,1,0-5c.1-1.3.23-2.59.44-3.88Zm9,21.59.06,0h0Zm1.12-1.51.09,0Zm0,0,.09,0Z"/><path class="cls-1" d="M174.42,403.07a12.14,12.14,0,0,1-5.77-1.38,11.87,11.87,0,0,1-3.84-3.32c-1.93-2.59-3.05-6.09-3.35-10.41a43.31,43.31,0,0,1,0-5.08c.11-1.45.25-2.74.44-4l.12-.75,9.54.87-.18.89c-.17.82-.3,1.78-.41,2.85a34.63,34.63,0,0,0-.18,3.5c0,3.42.66,5,1.19,5.69a3.46,3.46,0,0,0,.51.57,2.79,2.79,0,0,0,1.33.54,2.82,2.82,0,0,0,1.38-.15,1.85,1.85,0,0,0,.63-.41,2.54,2.54,0,0,0,.55-.94c.4-1.17.25-2.84-.45-5a21.46,21.46,0,0,0-1.51-3.59c-.26-.52-.57-1.11-.94-1.76L172,378.56l9.56-2.33.29.57c4.24,8.23,5.24,14.9,3,19.8a10.67,10.67,0,0,1-5,5.23l.11.26-.09-.19,0,.21-.11-.26-.05,0,0,.27,0-.26-.26.12a13.21,13.21,0,0,1-2.58.84c-.34.07-.66.11-1,.15l-.28,0a1.85,1.85,0,0,1-.39,0Zm.82-1.65.27.79-.12-.8a3,3,0,0,1,.43,0l.76-.12a11.42,11.42,0,0,0,2.23-.73,9.39,9.39,0,0,0,1.74-1l-.16-.39.12-.05.22,0,.06.29a9.21,9.21,0,0,0,2.61-3.39c2-4.31,1.08-10.3-2.67-17.81l-6.25,1.53.45.81c.38.68.71,1.29,1,1.83a22.24,22.24,0,0,1,1.61,3.82c.82,2.51,1,4.48.44,6a4,4,0,0,1-.95,1.57,3.36,3.36,0,0,1-1.17.77,4.28,4.28,0,0,1-2.19.25,4.51,4.51,0,0,1-2.09-.84,5.1,5.1,0,0,1-.83-.9c-1-1.33-1.51-3.51-1.52-6.66a32.44,32.44,0,0,1,.18-3.67c.08-.76.17-1.47.28-2.13l-6.23-.56c-.13.95-.24,2-.32,3.06a39.55,39.55,0,0,0,0,4.86c.27,4,1.28,7.22,3,9.54a10.14,10.14,0,0,0,3.31,2.87A10.86,10.86,0,0,0,175.24,401.42Zm5.61-.78,0-.52Z"/><path class="cls-2" d="M207.26,398.51l-7.47-8.16,1.24,7.42-7.52,1-2.91-22.34a25.46,25.46,0,0,1,8.53-2,12.22,12.22,0,0,1,6.41,1.15,8.12,8.12,0,0,1,4.08,5.76,6.89,6.89,0,0,1,.21,2.58,6,6,0,0,1-.65,2.3,5.86,5.86,0,0,1-1.93,2.16l5.46,4.35Zm-5.46-16.25a2.48,2.48,0,0,0-.75-1.55,3,3,0,0,0-1.3-.66A4.6,4.6,0,0,0,198,380l1,5.37a3.66,3.66,0,0,0,1.6-.46A2.37,2.37,0,0,0,201.8,382.26Z"/><path class="cls-1" d="M192.81,399.73,189.72,376l.56-.24a26.17,26.17,0,0,1,8.8-2.05,13.12,13.12,0,0,1,6.84,1.24,8.9,8.9,0,0,1,4.49,6.31,7.47,7.47,0,0,1,.23,2.82,6.76,6.76,0,0,1-.74,2.6,6.49,6.49,0,0,1-1.35,1.79l5.36,4.27-6.66,7-6.2-6.77.92,5.53ZM191.49,377l2.72,20.91,5.88-.82-1.55-9.3,8.73,9.54,4.24-4.45-5.63-4.49.91-.62a5.1,5.1,0,0,0,1.67-1.86,5.21,5.21,0,0,0,.56-2,5.91,5.91,0,0,0-.18-2.27,7.3,7.3,0,0,0-3.68-5.28,11.49,11.49,0,0,0-6-1.06A24.32,24.32,0,0,0,191.49,377Zm6.75,9.19L197,379.27l.83-.12a5.42,5.42,0,0,1,2.12.12,3.76,3.76,0,0,1,1.64.83,3.32,3.32,0,0,1,1,2h0a3.17,3.17,0,0,1-1.71,3.43,4.48,4.48,0,0,1-2,.56Zm.68-5.45.65,3.66a3.28,3.28,0,0,0,.55-.24,1.55,1.55,0,0,0,.87-1.78,1.63,1.63,0,0,0-.49-1.06,2.12,2.12,0,0,0-.95-.47A4.62,4.62,0,0,0,198.92,380.73Z"/><path class="cls-2" d="M220.36,395.89l-2-21.25,14,6.54-1.46-9.27,8.89-1.27,2.78,23-14.51-5.2.84,6.64Z"/><path class="cls-1" d="M219.63,396.78l-2.23-23.47,13.92,6.49L230,371.22l10.53-1.5,3,25.17-14.5-5.2.78,6.16Zm-.34-20.8,1.81,19,6.89-.63-.9-7.11,14.52,5.2-2.53-20.91-7.25,1,1.57,10Z"/><path class="cls-2" d="M260.32,393a12.09,12.09,0,0,1-4.72-1.14,11.2,11.2,0,0,1-3.62-2.68,10.9,10.9,0,0,1-2.22-3.88,10.71,10.71,0,0,1-.41-4.65,11.6,11.6,0,0,1,1.55-4.57,13.63,13.63,0,0,1,12.31-6.8,12.18,12.18,0,0,1,4.72,1.14,11,11,0,0,1,3.63,2.68,10.7,10.7,0,0,1,2.2,3.88,10.84,10.84,0,0,1,.42,4.65,11.91,11.91,0,0,1-1.54,4.57,13.74,13.74,0,0,1-3.13,3.68A13.27,13.27,0,0,1,260.32,393ZM257,381a4.17,4.17,0,0,0,1,3.38,4.58,4.58,0,0,0,3.33,1.52,5.29,5.29,0,0,0,3.66-1.24,4.93,4.93,0,0,0,1.86-3.28,4.13,4.13,0,0,0-1.06-3.38,4.41,4.41,0,0,0-3.31-1.52,5.35,5.35,0,0,0-3.67,1.24A4.9,4.9,0,0,0,257,381Z"/><path class="cls-1" d="M260.89,393.81h-.6a13.09,13.09,0,0,1-5-1.21,12,12,0,0,1-3.88-2.89,11.53,11.53,0,0,1-2.83-9.16,12.57,12.57,0,0,1,1.65-4.88,14.3,14.3,0,0,1,3.3-3.89,14.13,14.13,0,0,1,9.75-3.31,13,13,0,0,1,5,1.21,11.83,11.83,0,0,1,3.9,2.88,11.55,11.55,0,0,1,2.81,9.16,12.8,12.8,0,0,1-1.63,4.89,14.62,14.62,0,0,1-3.32,3.89A14.1,14.1,0,0,1,260.89,393.81Zm-.54-1.63a12.44,12.44,0,0,0,8.65-2.94,12.89,12.89,0,0,0,2.94-3.46,11.2,11.2,0,0,0,1.43-4.26,10.12,10.12,0,0,0-.38-4.3,9.9,9.9,0,0,0-2-3.59,10.11,10.11,0,0,0-3.37-2.48,11.4,11.4,0,0,0-4.41-1.07,12.88,12.88,0,0,0-11.57,6.39,11.11,11.11,0,0,0-1.45,4.27,10,10,0,0,0,.39,4.3,10.22,10.22,0,0,0,2.05,3.59,10.41,10.41,0,0,0,3.36,2.49,11.33,11.33,0,0,0,4.4,1.05Zm1.19-5.43h-.27a5.44,5.44,0,0,1-3.89-1.78,5,5,0,0,1-1.24-4h0a5.68,5.68,0,0,1,2.14-3.79,6.08,6.08,0,0,1,4.21-1.43,5.23,5.23,0,0,1,3.89,1.79,4.91,4.91,0,0,1,1.25,4,5.65,5.65,0,0,1-2.15,3.81A6.07,6.07,0,0,1,261.54,386.75Zm-3.79-5.63a3.4,3.4,0,0,0,.84,2.76,3.82,3.82,0,0,0,2.76,1.24,4.47,4.47,0,0,0,3.1-1.06,4.06,4.06,0,0,0,1.57-2.75,3.29,3.29,0,0,0-.85-2.73,3.65,3.65,0,0,0-2.75-1.26,4.49,4.49,0,0,0-3.11,1.07A4,4,0,0,0,257.75,381.12Z"/><path class="cls-2" d="M281.22,391.72l0-22.67,8.27.26-.84,22.52Z"/><path class="cls-1" d="M289.45,392.66l-9-.14,0-24.31,9.92.31ZM282,390.92l5.84.09.79-20.92-6.62-.2Z"/><path class="cls-2" d="M331.27,384.67c-.53,3.44-2,5.94-4.45,7.47a13.59,13.59,0,0,1-7.56,1.72,30.07,30.07,0,0,1-7.15-1.08,25.37,25.37,0,0,1-3.16-1l3.19-21.38a31,31,0,0,1,9.69.51q7.49,1.44,9.2,7.75a12.93,12.93,0,0,1,.41,2.28,15.34,15.34,0,0,1,0,1.93A10,10,0,0,1,331.27,384.67Zm-7.46-1.17a4.73,4.73,0,0,0,.18-2.06,3.2,3.2,0,0,0-.65-1.63,3.55,3.55,0,0,0-1.92-1.12,8.2,8.2,0,0,0-2.84-.22l-1.53,7.4a7,7,0,0,0,2.82.6,3.82,3.82,0,0,0,3.94-3Z"/><path class="cls-1" d="M319.74,394.68h-.5a31.36,31.36,0,0,1-7.33-1.12,25.53,25.53,0,0,1-3.27-1l-.59-.24,3.38-22.63.62-.07a32,32,0,0,1,9.94.53c5.28,1,8.59,3.81,9.83,8.33a14.1,14.1,0,0,1,.43,2.42,16.3,16.3,0,0,1,0,2,11.31,11.31,0,0,1-.22,1.94c-.57,3.66-2.19,6.36-4.82,8A14.15,14.15,0,0,1,319.74,394.68Zm-9.89-3.44a24.9,24.9,0,0,0,2.47.75,29.24,29.24,0,0,0,7,1.06,12.82,12.82,0,0,0,7.11-1.6c2.24-1.4,3.58-3.66,4.08-6.9v-.06a8.94,8.94,0,0,0,.18-1.66,13.26,13.26,0,0,0,0-1.82,11.69,11.69,0,0,0-.38-2.14c-1.07-3.92-3.88-6.27-8.57-7.17a31,31,0,0,0-8.83-.57Zm10-4h0a7.62,7.62,0,0,1-3.16-.67l-.59-.27,1.78-8.61.59-.07a8.73,8.73,0,0,1,3.13.25,4.2,4.2,0,0,1,2.35,1.4,4,4,0,0,1,.83,2,5.55,5.55,0,0,1-.22,2.42,4.61,4.61,0,0,1-4.7,3.53Zm-1.9-1.92a6.25,6.25,0,0,0,1.9.3h0a3.22,3.22,0,0,0,1.79-.46,3.28,3.28,0,0,0,1.35-1.93v0a4,4,0,0,0,.15-1.71,2.41,2.41,0,0,0-.49-1.22,2.65,2.65,0,0,0-1.48-.84,8.15,8.15,0,0,0-2-.24Z"/><path class="cls-2" d="M351.86,401.36l-15.52-3.3,5.23-23,15.84,3.08-1.21,6.48-8.74-2.15-.48,2.63,4.54,1-1.07,5.9-4.61-1.41-.55,2.79,7.78,1.72Z"/><path class="cls-1" d="M352.5,402.33l-17.14-3.64L341,374.12l17.4,3.38-1.51,8.12-8.74-2.14-.18,1,4.53,1-1.36,7.57-4.63-1.42-.22,1.13,7.77,1.72Zm-15.19-4.89,13.91,3,.9-4.63L344.33,394l.89-4.45,4.59,1.41.77-4.24-4.54-1,.77-4.23,8.75,2.15.9-4.85L342.19,376Z"/><path class="cls-2" d="M392.59,401.05A6.5,6.5,0,0,1,390,406.3a7.54,7.54,0,0,1-5.61,1.24c-1-.12-2.18-.33-3.49-.61l-1.74-.38-1.73-.39h0L372.14,405l3.6-21.92,7.27,1.36a33.76,33.76,0,0,1,4.61,1.33,13.34,13.34,0,0,1,4,2.1q3.69,3-.89,6.76a6.9,6.9,0,0,1-1.18.78A5.84,5.84,0,0,1,392.59,401.05Zm-9.33,1.59a2.92,2.92,0,0,0,.93-.5,1.33,1.33,0,0,0,.45-.93,2.4,2.4,0,0,0-1.31-2,6,6,0,0,0-1.22-.6c-.35-.13-.72-.26-1.14-.39-.42,2.75-.63,4.11-.63,4.11s.22.13.7.26l.51.14.31.06a2.63,2.63,0,0,0,1.19,0Zm-1.49-9.42a3.34,3.34,0,0,0,2.08-.23,1.92,1.92,0,0,0,1.07-1.16,1.5,1.5,0,0,0-.35-1.46,3.83,3.83,0,0,0-2.2-1.08Z"/><path class="cls-1" d="M385.68,408.44a9.75,9.75,0,0,1-1.41-.1c-1-.12-2.22-.33-3.56-.61l-9.49-2.1,3.86-23.5,8.08,1.51A36.82,36.82,0,0,1,387.9,385a14.3,14.3,0,0,1,4.21,2.24,4.48,4.48,0,0,1,1.94,3.43c0,1.5-.92,3-2.83,4.58l-.24.2a6.44,6.44,0,0,1,2.42,5.64,7.3,7.3,0,0,1-2.94,5.87A7.9,7.9,0,0,1,385.68,408.44Zm-7.78-3,3.15.7c1.29.27,2.44.47,3.42.59a6.68,6.68,0,0,0,5-1.09,5.67,5.67,0,0,0,2.28-4.63h0a5,5,0,0,0-2.68-4.9l-1.24-.75,1.29-.66a6,6,0,0,0,1-.69c1.5-1.23,2.25-2.35,2.25-3.33a3,3,0,0,0-1.35-2.17,12.43,12.43,0,0,0-3.74-2,32.74,32.74,0,0,0-4.51-1.29l-6.42-1.2-3.34,20.33Zm4.49-1.83a3.23,3.23,0,0,1-.69-.07l-.34-.07-.28-.08-.23-.06c-.69-.19-1.08-.31-1.25-.72l-.16-.36.12-.23.75-4.89.89.26c.44.13.84.27,1.21.42a6.38,6.38,0,0,1,1.36.67,3.19,3.19,0,0,1,1.69,2.75,2.2,2.2,0,0,1-.7,1.49,3.83,3.83,0,0,1-1.22.69l-.2.07A3.56,3.56,0,0,1,382.39,403.61Zm-1.14-1.85h0l.26.07.23.06.24.05a1.77,1.77,0,0,0,.86,0l.14-.05a2,2,0,0,0,.67-.36.49.49,0,0,0,.17-.35c0-.16,0-.7-.94-1.33a4.88,4.88,0,0,0-1.05-.51l-.21-.08Zm1.24-7.66a5.19,5.19,0,0,1-.86-.08l-.78-.14.85-5.56.83.17a4.61,4.61,0,0,1,2.65,1.34,2.3,2.3,0,0,1,.52,2.22,2.72,2.72,0,0,1-1.48,1.67A4.08,4.08,0,0,1,382.49,394.1Zm.55-3.78-.33,2.15a2.62,2.62,0,0,0,.8-.21,1.08,1.08,0,0,0,.63-.67.67.67,0,0,0-.19-.69A2.24,2.24,0,0,0,383,390.32Z"/><path class="cls-2" d="M400.36,409.26l2-22.59,8.22,1L407.77,410Z"/><path class="cls-1" d="M408.48,410.91l-9-.92,2.11-24.23,9.87,1.17Zm-7.24-2.37,5.82.59,2.58-20.78-6.57-.77Z"/><path class="cls-2" d="M431.39,412.63l-6.65-7.91,0,5.77-7.57-.52-.21-21.54,7.91-.72,0,7.35,8.15-7.21,5.44,5.12-8.18,6.57,8.29,7.31Z"/><path class="cls-1" d="M431.29,413.76l-5.75-6.83,0,4.43-9.17-.63-.23-23.05,9.55-.85,0,6.42,7.34-6.51,6.66,6.28-8.16,6.55,8.28,7.31ZM424,402.51l7.55,9,5.73-4.66-8.29-7.32,8.2-6.59-4.21-4-9,7.92,0-8.27-6.27.57.2,20,5.95.41Z"/><path class="cls-2" d="M462.75,410.09l-15.81,1.44L445.14,388l16.05-1.74.76,6.55-9,.53.32,2.65,4.64-.35.73,6h-4.82l.29,2.83,7.95-.65Z"/><path class="cls-1" d="M446.19,412.41l-1.92-25.14,17.63-1.91,1,8.21-9,.53.12,1,4.64-.35.94,7.64h-4.84l.12,1.15,7.94-.66.86,7.91ZM446,388.72l1.67,21.92,14.18-1.29-.52-4.69-7.95.66-.46-4.52h4.8l-.52-4.28-4.65.35-.51-4.28,9-.53-.57-4.9Z"/><path class="cls-2" d="M480.56,384.49a33.29,33.29,0,0,1,9-1.74,14.34,14.34,0,0,1,6.58.85,6.2,6.2,0,0,1,3.84,4.73q1.18,6.1-3,9.34a10.16,10.16,0,0,1-3.43,1.72,6.15,6.15,0,0,1-2.56.3l1.06,5.72-7.6,1.72ZM493,390.61a3.42,3.42,0,0,0-.84-1.85,3.14,3.14,0,0,0-1.4-.81,4.3,4.3,0,0,0-1.86-.17l1.12,6.3a3.88,3.88,0,0,0,1.66-.49A2.68,2.68,0,0,0,493,390.61Z"/><path class="cls-1" d="M483.8,408.11,479.65,384l.65-.23a34.61,34.61,0,0,1,9.22-1.79,15.38,15.38,0,0,1,7,.92,7,7,0,0,1,4.32,5.32c.85,4.39-.26,7.8-3.31,10.14a10.88,10.88,0,0,1-3.69,1.86,9.37,9.37,0,0,1-1.81.35l1,5.51Zm-2.32-23.06,3.63,21.1,6-1.36L490,398.72l1.13.17a5.42,5.42,0,0,0,2.22-.28,9.53,9.53,0,0,0,3.15-1.58c2.55-2,3.44-4.76,2.7-8.55a5.38,5.38,0,0,0-3.36-4.14,13.6,13.6,0,0,0-6.21-.78A33,33,0,0,0,481.48,385.05Zm7.88,9.87L488,387.09l.83-.12a5.15,5.15,0,0,1,2.21.2,4,4,0,0,1,1.75,1,4.22,4.22,0,0,1,1.07,2.3h0a3.46,3.46,0,0,1-1.72,3.79,4.68,4.68,0,0,1-2,.6Zm.52-6.34.82,4.56a2.71,2.71,0,0,0,.61-.27,1.87,1.87,0,0,0,.91-2.14,2.53,2.53,0,0,0-.63-1.41,2.35,2.35,0,0,0-1-.59A4.27,4.27,0,0,0,489.88,388.58Z"/><path class="cls-2" d="M520.13,398.77a12.25,12.25,0,0,1-4.86.05,11.21,11.21,0,0,1-4.16-1.71,10.7,10.7,0,0,1-3.1-3.22,10.93,10.93,0,0,1-1.55-4.4,11.7,11.7,0,0,1,.38-4.81,13.43,13.43,0,0,1,2.12-4.33,13.29,13.29,0,0,1,8.15-5.28A12.2,12.2,0,0,1,522,375a10.89,10.89,0,0,1,4.18,1.72,10.43,10.43,0,0,1,3.09,3.22,10.62,10.62,0,0,1,1.54,4.4,12.06,12.06,0,0,1-.36,4.81,13.79,13.79,0,0,1-2.14,4.33A13.28,13.28,0,0,1,520.13,398.77ZM513.93,388a4.18,4.18,0,0,0,1.83,3,4.58,4.58,0,0,0,3.59.65,5.24,5.24,0,0,0,3.25-2.1,4.88,4.88,0,0,0,1-3.63,4.12,4.12,0,0,0-1.86-3,4.42,4.42,0,0,0-3.58-.66,5.32,5.32,0,0,0-3.25,2.1A5,5,0,0,0,513.93,388Z"/><path class="cls-1" d="M517.54,399.85a12.32,12.32,0,0,1-2.42-.23,12.05,12.05,0,0,1-4.47-1.84,11.53,11.53,0,0,1-5-8.19,12.64,12.64,0,0,1,.4-5.14,14.5,14.5,0,0,1,10.88-10.17,12.92,12.92,0,0,1,5.18-.06,11.57,11.57,0,0,1,4.48,1.83,11.43,11.43,0,0,1,3.32,3.47,11.72,11.72,0,0,1,1.66,4.72,12.83,12.83,0,0,1-.39,5.14,14.45,14.45,0,0,1-2.26,4.59,14.13,14.13,0,0,1-8.63,5.59h0A12.94,12.94,0,0,1,517.54,399.85Zm2.15-24.24a11.62,11.62,0,0,0-2.41.26,12.32,12.32,0,0,0-7.66,5,12.47,12.47,0,0,0-2,4.06,11.12,11.12,0,0,0-.36,4.5,10,10,0,0,0,1.43,4.07,10.06,10.06,0,0,0,2.87,3,10.51,10.51,0,0,0,3.86,1.59A11.53,11.53,0,0,0,520,398h0a12.33,12.33,0,0,0,7.66-5,12.89,12.89,0,0,0,2-4.07,11.19,11.19,0,0,0,.34-4.48,10.14,10.14,0,0,0-1.43-4.07,9.76,9.76,0,0,0-2.85-3,10,10,0,0,0-3.88-1.59A11.62,11.62,0,0,0,519.69,375.61Zm-1.41,17a5.2,5.2,0,0,1-3-.91,5,5,0,0,1-2.19-3.59h0a5.71,5.71,0,0,1,1.14-4.21,6.19,6.19,0,0,1,3.73-2.42,5.28,5.28,0,0,1,4.21.79,4.88,4.88,0,0,1,2.2,3.58,5.71,5.71,0,0,1-1.15,4.23,6.1,6.1,0,0,1-3.73,2.41A6.7,6.7,0,0,1,518.28,392.61Zm-3.55-4.71a3.4,3.4,0,0,0,1.49,2.46,3.76,3.76,0,0,0,3,.53,4.44,4.44,0,0,0,2.75-1.79,4,4,0,0,0,.85-3.05,3.26,3.26,0,0,0-1.5-2.44,3.64,3.64,0,0,0-3-.55,4.46,4.46,0,0,0-2.76,1.8A4.08,4.08,0,0,0,514.73,387.9Z"/><path class="cls-2" d="M540.57,366.74l4.73,15.16,7.58-3.28,2.64,6.7-14.59,5.76-8.5-21.1Z"/><path class="cls-1" d="M540.48,392.13l-9.11-22.6,9.71-3.87,4.72,15.13,7.53-3.25,3.25,8.24Zm-7-21.7,7.89,19.6,13.09-5.17-2-5.16-7.65,3.3-4.74-15.18Z"/><path class="cls-2" d="M572.48,379.91a12.07,12.07,0,0,1-4.81.61,11,11,0,0,1-4.33-1.22,10.67,10.67,0,0,1-5.49-7,11.68,11.68,0,0,1-.18-4.82,13.39,13.39,0,0,1,1.6-4.54,13.23,13.23,0,0,1,7.48-6.18,12.08,12.08,0,0,1,4.81-.62,10.8,10.8,0,0,1,4.35,1.22,10.47,10.47,0,0,1,3.43,2.84,10.65,10.65,0,0,1,2,4.19,11.64,11.64,0,0,1,.19,4.81,13.47,13.47,0,0,1-1.61,4.55A13.31,13.31,0,0,1,572.48,379.91Zm-7.4-10a4.19,4.19,0,0,0,2.17,2.79,4.57,4.57,0,0,0,3.65.24,5.28,5.28,0,0,0,3-2.47,4.83,4.83,0,0,0,.58-3.71,4.16,4.16,0,0,0-2.19-2.79,4.46,4.46,0,0,0-3.64-.24,5.29,5.29,0,0,0-3,2.46A4.9,4.9,0,0,0,565.08,369.94Z"/><path class="cls-1" d="M568.56,381.37c-.31,0-.63,0-.95,0A11.9,11.9,0,0,1,563,380a11.5,11.5,0,0,1-5.9-7.55,12.56,12.56,0,0,1-.19-5.15A14.51,14.51,0,0,1,566.49,356a13.05,13.05,0,0,1,5.13-.65,11.64,11.64,0,0,1,4.67,1.31,11.29,11.29,0,0,1,3.69,3.06,11.49,11.49,0,0,1,2.19,4.49,12.68,12.68,0,0,1,.21,5.14,14.37,14.37,0,0,1-1.72,4.82,14.1,14.1,0,0,1-7.92,6.55h0A13.08,13.08,0,0,1,568.56,381.37Zm2.11-24.47a11.29,11.29,0,0,0-3.66.61,12.3,12.3,0,0,0-7,5.81,12.73,12.73,0,0,0-1.51,4.26,11,11,0,0,0,.17,4.5,9.84,9.84,0,0,0,5.07,6.5,10.26,10.26,0,0,0,4,1.13,11.35,11.35,0,0,0,4.49-.57h0a12.36,12.36,0,0,0,7-5.82,12.71,12.71,0,0,0,1.52-4.27,11.1,11.1,0,0,0-.17-4.49,10.08,10.08,0,0,0-1.89-3.87,9.65,9.65,0,0,0-3.18-2.63,10,10,0,0,0-4-1.13Zm-1.37,17.15a5.19,5.19,0,0,1-2.42-.6,4.93,4.93,0,0,1-2.58-3.31h0a5.71,5.71,0,0,1,.65-4.31,6.11,6.11,0,0,1,3.42-2.83,5.26,5.26,0,0,1,4.28.29,4.93,4.93,0,0,1,2.59,3.31,5.59,5.59,0,0,1-.66,4.32,6,6,0,0,1-3.42,2.83A6.13,6.13,0,0,1,569.3,374.05Zm-3.43-4.31a3.37,3.37,0,0,0,1.76,2.27,3.77,3.77,0,0,0,3,.19,4.48,4.48,0,0,0,2.53-2.1,4.07,4.07,0,0,0,.49-3.12,3.33,3.33,0,0,0-1.77-2.25,3.66,3.66,0,0,0-3-.2,4.47,4.47,0,0,0-2.53,2.1A4.08,4.08,0,0,0,565.87,369.74Z"/><path class="cls-1" d="M119.58,356.29a6.05,6.05,0,0,1-.7,5.44,7.07,7.07,0,0,1-4.59,2.81c-.93.2-2,.38-3.28.53l-1.65.19-1.65.18h0l-5,.6-3.5-20.49,6.84-1a32.34,32.34,0,0,1,4.48-.24,12.93,12.93,0,0,1,4.16.64q4.17,1.51,1.27,6.26a6.06,6.06,0,0,1-.81,1.05A5.46,5.46,0,0,1,119.58,356.29Zm-12-3.62a3.23,3.23,0,0,0,1.77-.84,1.8,1.8,0,0,0,.58-1.36,1.39,1.39,0,0,0-.75-1.18A3.7,3.7,0,0,0,107,349Zm4.18,7.88a2.65,2.65,0,0,0,.67-.73,1.26,1.26,0,0,0,.12-1,2.23,2.23,0,0,0-1.79-1.41,5.15,5.15,0,0,0-1.26-.16,10.44,10.44,0,0,0-1.12,0l.69,3.83s.23.05.7,0l.5,0,.29,0a2.58,2.58,0,0,0,1-.39Z"/><path class="cls-1" d="M127.7,361.91,124.17,341l7.66-1.06,2.75,20.9Z"/><path class="cls-1" d="M155.17,359.2l-7.33-6.3.83,5.34-7.07.65L138.17,339l7.19-1.84,1.08,6.78,6.44-7.88,5.78,3.91-6.56,7.29,8.75,5.51Z"/><path class="cls-1" d="M182.35,354.64l-14.72,2-2.7-21.9,14.92-2.33,1,6.1-8.38.88.41,2.46,4.33-.53.93,5.54-4.5.22.4,2.63,7.39-1Z"/><path class="cls-1" d="M198.61,331.27a31.15,31.15,0,0,1,8.56-.69,13.46,13.46,0,0,1,6,1.47,5.81,5.81,0,0,1,3.09,4.8q.47,5.81-3.76,8.38a9.3,9.3,0,0,1-3.37,1.24,5.72,5.72,0,0,1-2.41,0l.39,5.43-7.25.81Zm11,7a3.14,3.14,0,0,0-.6-1.81,2.91,2.91,0,0,0-1.22-.9,4.09,4.09,0,0,0-1.71-.35l.39,6a3.71,3.71,0,0,0,1.6-.28A2.51,2.51,0,0,0,209.57,338.25Z"/><path class="cls-1" d="M232.41,350.06a11.47,11.47,0,0,1-4.45-.93,10.47,10.47,0,0,1-3.46-2.41,10.22,10.22,0,0,1-2.18-3.56,10.09,10.09,0,0,1-.52-4.34,10.91,10.91,0,0,1,1.32-4.32,12.8,12.8,0,0,1,11.32-6.7,11.29,11.29,0,0,1,4.45.93,10.28,10.28,0,0,1,3.47,2.4,10.08,10.08,0,0,1,2.69,7.9,11.06,11.06,0,0,1-1.31,4.32,12.82,12.82,0,0,1-11.33,6.71ZM228.92,339a3.92,3.92,0,0,0,1.06,3.14,4.31,4.31,0,0,0,3.15,1.32,4.9,4.9,0,0,0,3.39-1.27,4.52,4.52,0,0,0,1.65-3.11,3.87,3.87,0,0,0-1.09-3.14,4.13,4.13,0,0,0-3.14-1.32,5,5,0,0,0-3.39,1.27A4.58,4.58,0,0,0,228.92,339Z"/><path class="cls-1" d="M258.3,326.1,258.12,341l7.7-.72.41,6.72-14.66.91-1.45-21.25Z"/><path class="cls-1" d="M282.07,348.14a11.48,11.48,0,0,1-4.36-1.27,10.71,10.71,0,0,1-3.26-2.67,10,10,0,0,1-2.08-8.09,11,11,0,0,1,1.66-4.2,12.76,12.76,0,0,1,11.8-5.79,11.18,11.18,0,0,1,4.36,1.27,10.14,10.14,0,0,1,3.27,2.67,9.78,9.78,0,0,1,1.88,3.72,10,10,0,0,1,.18,4.36,10.88,10.88,0,0,1-1.64,4.2,12.58,12.58,0,0,1-3.09,3.3A12.39,12.39,0,0,1,282.07,348.14Zm-2.61-11.32a3.9,3.9,0,0,0,.81,3.2,4.27,4.27,0,0,0,3,1.57,4.9,4.9,0,0,0,3.47-1,4.52,4.52,0,0,0,1.89-3,3.83,3.83,0,0,0-.84-3.21,4.16,4.16,0,0,0-3-1.57,4.93,4.93,0,0,0-3.47,1A4.59,4.59,0,0,0,279.46,336.82Z"/><path class="cls-1" d="M314,327.52,332,329l-.55,6-6.14-.41L323.69,350l-7.23-.65L318.37,334l-5-.34Z"/><path class="cls-1" d="M343.91,354.85a11.45,11.45,0,0,1-4-2.17,10.33,10.33,0,0,1-2.61-3.31,9.82,9.82,0,0,1-1.06-4A9.93,9.93,0,0,1,337,341a11,11,0,0,1,2.51-3.76,12.81,12.81,0,0,1,12.77-3.15,11.45,11.45,0,0,1,4,2.17,10.36,10.36,0,0,1,2.63,3.31,10,10,0,0,1,1.05,4,10.14,10.14,0,0,1-.75,4.29,11.15,11.15,0,0,1-2.5,3.76,12.66,12.66,0,0,1-3.72,2.56A12.42,12.42,0,0,1,343.91,354.85Zm-.14-11.62a3.91,3.91,0,0,0,.11,3.31,4.29,4.29,0,0,0,2.63,2.18,4.91,4.91,0,0,0,3.61-.24A4.56,4.56,0,0,0,352.6,346a3.84,3.84,0,0,0-.14-3.31,4.16,4.16,0,0,0-2.62-2.17,5,5,0,0,0-3.61.23A4.58,4.58,0,0,0,343.77,343.23Z"/><path class="cls-1" d="M375,340.06c-.42.71-.84,1.53-1.28,2.47a32.06,32.06,0,0,0-1.25,3.11q-1.32,3.92-.68,5.88a3.87,3.87,0,0,0,.36.85,3.37,3.37,0,0,0,1.3,1.13,3.29,3.29,0,0,0,1.64.37,2.4,2.4,0,0,0,1-.24,3.09,3.09,0,0,0,1.05-.88,8.47,8.47,0,0,0,1.28-5,21.41,21.41,0,0,0-.25-3.75c-.07-.54-.17-1.17-.29-1.87l-.17-.91-.16-.93,7.58.71q1.81,12.56-3.19,17.79a9.27,9.27,0,0,1-5.94,2.9,11.05,11.05,0,0,1-2.37-.05q-.44-.06-.84-.15l-.29-.07-.21-.05a11,11,0,0,1-5.15-3,10.51,10.51,0,0,1-2.22-3.83,17.24,17.24,0,0,1,.24-9.8,38,38,0,0,1,1.54-4.39c.48-1.12,1-2.22,1.57-3.3Zm1.34,21.84h0Zm1.45-1a.19.19,0,0,1,.08,0Zm0,0a.19.19,0,0,1,.08,0A.19.19,0,0,0,377.79,360.91Z"/><path class="cls-1" d="M402.47,366.43l-5-9.05-.51,7-7.06-.71,2.27-20.94a23.41,23.41,0,0,1,8.18.07,11.26,11.26,0,0,1,5.57,2.45,7.55,7.55,0,0,1,2.44,6.14,6.33,6.33,0,0,1-.37,2.38,5.7,5.7,0,0,1-1.09,2,5.39,5.39,0,0,1-2.24,1.54l4,5.16Zm-1.38-16a2.36,2.36,0,0,0-.34-1.57,2.83,2.83,0,0,0-1-.88,4.27,4.27,0,0,0-1.61-.49l-.31,5.1a3.42,3.42,0,0,0,1.55-.07A2.23,2.23,0,0,0,401.09,350.46Z"/><path class="cls-1" d="M415.93,366.7l.28-20,12.37,7.5-.42-8.77,8.4-.28.25,21.72-13-6.31.11,6.25Z"/><path class="cls-1" d="M452.19,366.66l-7.67-1.78,8.94-22.48,14.33,19.35-5.28,4.15-2.1-3.27-7.27.5Zm5.24-8.59-2.06-3.18-.89,3.32Z"/><path class="cls-1" d="M474.56,360.5l3.2-20.34,8.89,7L492.22,337l10,18.05-7,4.12-3.48-7.07-3,6.28-5.14-3.79L482.43,362Z"/><path class="cls-1" d="M524.69,351.19l-14.18,4.41-6.25-21.16,14.33-4.74,2,5.85-8.11,2.24.81,2.37,4.17-1.24,1.84,5.31-4.41,1,.82,2.53,7.14-2.16Z"/><path class="cls-1" d="M532.15,349.13l-6.93-18.75,14.26,2.55-3.55-8,7.74-3.29,8.05,20.19-14.38-1.22,2.36,5.8Z"/><path class="cls-1" d="M548.62,319.89l16.27-7.75,2.52,5.45-5.52,2.71,6.38,14.23-6.58,3-6-14.23-4.46,2.18Z"/><path class="cls-1" d="M130.74,14.7l6.71-6.32,2,0,.27,16.74-4.42.07-.13-8.59-4.31,4.06-4.47-3.9.14,8.57-4.42.07-.27-16.74,2,0Z"/><path d="M121.8,25.68l-.28-17.35,2.4,0,6.81,6,6.6-6.21,2.4,0L140,25.39l-5,.08-.14-8.21-4,3.78-4.15-3.63.13,8.19Zm.33-16.75.26,16.14,3.82-.07-.15-8.95,4.77,4.17,4.61-4.35.14,9,3.82-.06-.26-16.13-1.57,0-6.82,6.42-7-6.2Z"/><path class="cls-1" d="M156.4,8.08a8.37,8.37,0,1,1-8.22,8.52A8.38,8.38,0,0,1,156.4,8.08Zm.07,4.37a4,4,0,1,0,4.05,3.93A4,4,0,0,0,156.47,12.45Z"/><path d="M156.53,25.12a8.68,8.68,0,0,1-.14-17.35v0a8.68,8.68,0,1,1,.28,17.35Zm0-16.74h-.13a8,8,0,0,0-5.65,2.46,8.07,8.07,0,0,0,11.58,11.23,8,8,0,0,0,2.27-5.73,8.09,8.09,0,0,0-8.07-8Zm0,12.36a4.3,4.3,0,0,1-3.07-7.29,4.24,4.24,0,0,1,3-1.3h0a4.38,4.38,0,0,1,3.06,1.21,4.3,4.3,0,0,1-2.92,7.38Zm-.06-8a3.71,3.71,0,0,0-3.61,3.75,3.69,3.69,0,0,0,3.67,3.64h.06A3.68,3.68,0,0,0,159.18,19a3.69,3.69,0,0,0-.08-5.22,3.72,3.72,0,0,0-2.63-1Z"/><path class="cls-1" d="M186,24.34l-8-7.79.13,7.92-4.4.07L173.4,7.8l1.79,0,8.05,7.78-.13-7.9,4.4-.08.27,16.75Z"/><path d="M173.37,24.85,173.09,7.5l2.22,0,7.61,7.35-.12-7.47,5-.08.28,17.34-2.23,0-.09-.09-7.51-7.28.12,7.49Zm.34-16.75L174,24.24l3.79-.07-.14-8.35L186.09,24l1.38,0-.26-16.14-3.79.06.13,8.33-8.49-8.19Z"/><path class="cls-1" d="M196.1,7.41l13.19-.21.07,4.38-4.44.07.2,12.39-4.4.07-.2-12.39-4.35.07Z"/><path d="M200.42,24.41,200.22,12l-4.35.07-.08-5,13.8-.23.08,5-4.45.08.2,12.38Zm.4-13L201,23.8l3.79-.06-.2-12.39,4.44-.07L209,7.51l-12.59.2.06,3.77Z"/><path class="cls-1" d="M227.88,23.67l-2.66-4.4-2.72,0,.07,4.45-4.4.07L217.9,7.09,225,7a6.15,6.15,0,0,1,4.35,10.6l3.65,6Zm-5.45-8.15,2.73,0a2.4,2.4,0,1,0-.08-4.8l-2.72,0Z"/><path d="M217.87,24.13l-.28-17.34L225,6.67a6.32,6.32,0,0,1,4.6,1.82,6.42,6.42,0,0,1,.13,9.13l3.8,6.26-5.77.1-2.66-4.4-2.25,0,.08,4.44Zm.34-16.75.26,16.14,3.79-.06L222.19,19l3.2-.06,2.66,4.4,4.36-.07-3.49-5.77.17-.16A5.89,5.89,0,0,0,230.91,13,5.86,5.86,0,0,0,225,7.28Zm3.93,8.45-.09-5.41,3-.05A2.7,2.7,0,0,1,227.83,13a2.66,2.66,0,0,1-.76,1.93,2.71,2.71,0,0,1-1.91.81Zm.53-4.81.06,4.19,2.42,0a2.11,2.11,0,0,0,1.49-.63,2,2,0,0,0,.59-1.49,2.12,2.12,0,0,0-.64-1.48,2.09,2.09,0,0,0-1.5-.59Z"/><path class="cls-1" d="M240.42,6.72l10.4-.16.06,3.63-6,.1,0,2.72,5.31-.08.06,3.7-5.31.09L245,19.8l6-.1.06,3.6-10.4.16Z"/><path d="M240.39,23.77l-.28-17.35,11-.17.07,4.24-6,.1,0,2.12,5.31-.09.07,4.31-5.31.09,0,2.47,6-.09.07,4.19ZM240.73,7,241,23.16l9.79-.16-.05-3-6,.1-.06-3.69,5.31-.08,0-3.1-5.31.08L244.57,10l6-.09,0-3Z"/><path class="cls-1" d="M258.7,23.17l7.54-16.86,2,0,8.15,16.61L272,23l-1.06-2.17-6.85.11-1,2.2Zm7-6,3.42-.06-1.76-3.65Z"/><path d="M258.23,23.48,266,6l2.38,0,8.44,17.21-5.07.09-1.06-2.17-6.47.1-1,2.2Zm8.21-16.87-7.27,16.25,3.73-.06,1-2.2,7.24-.12,1.06,2.18,3.73-.07L268,6.58Zm-1.19,10.87,2.12-4.74,2.25,4.67Zm2.14-3.3-1.2,2.68,2.47,0Z"/><path class="cls-1" d="M283.92,6,288.31,6l.2,12.32,6-.09.07,4.42-10.42.16Z"/><path d="M283.89,23.07l-.28-17.34,5-.08.2,12.32,6-.1.08,5Zm.33-16.75.26,16.14,9.82-.16-.06-3.82-6,.1L288,6.26Z"/><path class="cls-1" d="M326.7,5.33a8.38,8.38,0,1,1-8.21,8.53A8.41,8.41,0,0,1,326.7,5.33Zm.07,4.38a4,4,0,1,0,4.06,3.93A4,4,0,0,0,326.77,9.71Z"/><path d="M326.83,22.38A8.68,8.68,0,0,1,326.7,5V5a8.52,8.52,0,0,1,6.17,2.46A8.66,8.66,0,0,1,327,22.38Zm0-16.74h-.13a8.07,8.07,0,1,0,5.92,13.69,8.08,8.08,0,0,0-5.79-13.69Zm0,12.36a4.23,4.23,0,0,1-3-1.22,4.29,4.29,0,0,1,2.91-7.37h.07A4.3,4.3,0,0,1,326.9,18Zm-.06-8a3.67,3.67,0,0,0-3.61,3.75,3.65,3.65,0,0,0,1.12,2.59,3.6,3.6,0,0,0,2.55,1h.05a3.7,3.7,0,0,0-.05-7.39Z"/><path class="cls-1" d="M343.71,5.06,350.76,5a6.15,6.15,0,0,1,.29,12.29l-2.75.05.07,4.44-4.4.07Zm4.53,8.43,2.72,0a2.4,2.4,0,1,0-.08-4.8l-2.72,0Z"/><path d="M343.68,22.11,343.4,4.76l7.35-.12a6.27,6.27,0,0,1,4.6,1.83,6.45,6.45,0,0,1,.17,9.11,6.32,6.32,0,0,1-4.47,2l-2.44,0,.07,4.44ZM344,5.36l.26,16.13,3.79-.06L348,17l3.05,0a5.69,5.69,0,0,0,4-1.78,5.86,5.86,0,0,0-4.32-9.91Zm3.93,8.44-.09-5.4,3-.05a2.8,2.8,0,0,1,1.93.76,2.7,2.7,0,0,1,.07,3.83,2.73,2.73,0,0,1-1.91.81ZM348.47,9l.07,4.2,2.42,0a2.09,2.09,0,0,0,1.48-.63,2.11,2.11,0,0,0-.05-3,2.21,2.21,0,0,0-1.5-.59Z"/><path class="cls-1" d="M364.86,4.72l10.4-.17.06,3.64-6,.1,0,2.72,5.31-.08.06,3.7-5.31.09.05,3.08,6-.1,0,3.59-10.4.17Z"/><path d="M364.83,21.77l-.27-17.35,11-.18.07,4.25-6,.09,0,2.12,5.31-.08.07,4.31-5.31.08,0,2.48,6-.1.07,4.2ZM365.17,5l.26,16.13,9.8-.16-.05-3-6,.09-.06-3.68,5.32-.09-.05-3.1-5.32.09L369,8l6-.1,0-3Z"/><path class="cls-1" d="M396.56,21l-8-7.79.13,7.92-4.4.07L384,4.41l1.78,0,8.06,7.78-.13-7.9,4.4-.07.27,16.74Z"/><path d="M384,21.46l-.28-17.35,2.21,0,7.62,7.35L393.39,4l5-.08.28,17.34-2.23,0-7.6-7.37.12,7.49Zm.34-16.75.26,16.14,3.79-.07-.14-8.35,8.47,8.22,1.38,0L397.8,4.49,394,4.55l.13,8.33-8.49-8.19Z"/><path class="cls-1" d="M429.32,10.85A2.69,2.69,0,0,0,430,9.12a2,2,0,0,0-2-1.89,2,2,0,0,0-1.91,2l-3.59.06A5.55,5.55,0,1,1,433.6,9.2a5.64,5.64,0,0,1-1,3.09l-3.12,4.58,4.73-.07.06,3.55-11.59.18Z"/><path d="M422.15,20.85l6.93-10.19a2.45,2.45,0,0,0,.65-1.54A1.75,1.75,0,0,0,428,7.53h0a1.66,1.66,0,0,0-1.62,1.71v.31l-4.2.06v-.3a5.82,5.82,0,0,1,1.56-4.06,6,6,0,0,1,4.31-1.85,5.51,5.51,0,0,1,4.19,1.8,6.11,6.11,0,0,1,1.64,4,5.94,5.94,0,0,1-1,3.28l-2.78,4.09,4.45-.07.07,4.16ZM429.56,11l-6.25,9.19,10.7-.17L434,17.11l-5,.08,3.45-5.07a5.43,5.43,0,0,0,.9-2.92,5.51,5.51,0,0,0-1.47-3.59A5,5,0,0,0,428.09,4a5.37,5.37,0,0,0-3.88,1.65A5.23,5.23,0,0,0,422.82,9l3-.05a2.24,2.24,0,0,1,2.2-2,2.34,2.34,0,0,1,2.32,2.18A2.93,2.93,0,0,1,429.56,11Z"/><path class="cls-1" d="M442.91,8.93a5.48,5.48,0,0,1,11-.15l.09,5.78a5.48,5.48,0,0,1-11,.18Zm3.59,5.73a2,2,0,0,0,3.93-.06l-.09-5.74a2,2,0,0,0-3.93,0Z"/><path d="M448.46,20.42a5.75,5.75,0,0,1-5.76-5.68l-.1-5.8a5.79,5.79,0,0,1,5.68-5.87h.09a5.81,5.81,0,0,1,5.8,5.71l.09,5.78a5.79,5.79,0,0,1-5.7,5.86ZM443.21,8.93l.09,5.8a5.14,5.14,0,0,0,1.57,3.64,5.19,5.19,0,0,0,8.79-3.8l-.1-5.79a5.19,5.19,0,0,0-5.19-5.1h-.08a5.17,5.17,0,0,0-5.08,5.25Zm5.26,8a2.25,2.25,0,0,1-2.27-2.23l-.09-5.75a2.2,2.2,0,0,1,.63-1.6,2.27,2.27,0,0,1,3.9,1.54l.09,5.74a2.24,2.24,0,0,1-2.23,2.3Zm-.09-9.66h0a1.66,1.66,0,0,0-1.64,1.67l.1,5.75a1.59,1.59,0,0,0,.5,1.17,1.76,1.76,0,0,0,1.18.47,1.65,1.65,0,0,0,1.64-1.69L450,8.86A1.65,1.65,0,0,0,448.38,7.23Z"/><path class="cls-1" d="M465,3.11,469.35,3l.27,16.74-4.39.07Z"/><path d="M464.93,20.16l-.28-17.35,5-.08.28,17.35Zm.34-16.75.25,16.13,3.8-.06-.26-16.13Z"/><path class="cls-1" d="M484.91,13.66A5.49,5.49,0,1,1,490.42,11l-4.73,8.54-4.06.07Zm.81-3.38a2,2,0,1,0-2-1.94A1.93,1.93,0,0,0,485.72,10.28Z"/><path d="M481.11,19.9l3.33-6A5.77,5.77,0,0,1,485.6,2.47h.09a5.76,5.76,0,0,1,5,8.66l-4.81,8.69Zm4.58-16.82h-.08A5.17,5.17,0,0,0,485,13.36l.43.06-3.23,5.85,3.36-.05,4.65-8.38a5.31,5.31,0,0,0,.7-2.68,5.18,5.18,0,0,0-1.58-3.62A5.09,5.09,0,0,0,485.69,3.08Zm0,7.5a2.27,2.27,0,0,1,0-4.54h0a2.27,2.27,0,0,1,0,4.54Zm0-3.93h0A1.64,1.64,0,0,0,484,8.34a1.67,1.67,0,0,0,.49,1.18,1.61,1.61,0,0,0,1.2.45h0a1.64,1.64,0,0,0,1.17-.49,1.68,1.68,0,0,0,.46-1.19A1.64,1.64,0,0,0,485.69,6.65Z"/><path d="M248.05,3,244.4,3h0a2.92,2.92,0,0,1,2.87-3L250.92,0h0A2.92,2.92,0,0,1,248.05,3Z"/><path class="cls-1" d="M128.48,233.33c.8,0,8.31-.42,8.31-.42l1.12,45.34Z"/><path class="cls-1" d="M446.57,218.23c1.34-.29,22-.68,22-.68l.91,6.18s-20.09,2-20.64,1.17A61.62,61.62,0,0,1,446.57,218.23Z"/><path class="cls-1" d="M228.42,137.38s2.78,19.28-1.39,26.07a40.21,40.21,0,0,1-6.58-7.13Z"/><path class="cls-1" d="M366.12,79.76l1.38,30.76s-11.77,1.92-11.79,1.12-1-8.31-1-8.31l10.44-1.11Z"/><polygon class="cls-1" points="478.44 128.39 489.6 165.5 475.14 167.38 473.63 158.28 479.84 160.31 478.44 128.39"/><path class="cls-1" d="M147.57,134.87s-7.46,17.59-10.68,17.38a97.12,97.12,0,0,1-5.8-8.48Z"/><polygon class="cls-1" points="150.26 206.88 153.99 233.93 137.67 236.92 136.76 231.3 147.74 229.75 146.52 207.76 150.26 206.88"/><path class="cls-1" d="M482.43,198l1,24.41-13.55.29s-2.65-5.35-1.3-5.11,9.88-1.44,9.88-1.44l-.61-19.4Z"/><path class="cls-1" d="M424.21,195.21l-8.83,63.16-2.46-16.78s4.5-46.25,5.58-45.92,5.71-.46,5.71-.46"/><polygon points="225.7 202.16 222.28 248.75 219.62 202.03 225.7 202.16"/></g></g></svg>